<?xml version="1.0" encoding="UTF-8" standalone="no"?>
<!-- Created with Inkscape (http://www.inkscape.org/) -->

<svg
   xmlns:dc="http://purl.org/dc/elements/1.1/"
   xmlns:cc="http://creativecommons.org/ns#"
   xmlns:rdf="http://www.w3.org/1999/02/22-rdf-syntax-ns#"
   xmlns:svg="http://www.w3.org/2000/svg"
   xmlns="http://www.w3.org/2000/svg"
   xmlns:sodipodi="http://sodipodi.sourceforge.net/DTD/sodipodi-0.dtd"
   xmlns:inkscape="http://www.inkscape.org/namespaces/inkscape"
   width="57.450684mm"
   height="100.45407mm"
   viewBox="0 0 57.450684 100.45407"
   version="1.1"
   id="svg6544"
   inkscape:version="0.92.3 (2405546, 2018-03-11)"
   sodipodi:docname="pose4_bg.svg">
  <defs
     id="defs6538" />
  <sodipodi:namedview
     id="base"
     pagecolor="#ffffff"
     bordercolor="#666666"
     borderopacity="1.0"
     inkscape:pageopacity="0.0"
     inkscape:pageshadow="2"
     inkscape:zoom="1.979899"
     inkscape:cx="91.498261"
     inkscape:cy="119.96063"
     inkscape:document-units="mm"
     inkscape:current-layer="layer1"
     showgrid="false"
     inkscape:window-width="1920"
     inkscape:window-height="1017"
     inkscape:window-x="1912"
     inkscape:window-y="-8"
     inkscape:window-maximized="1"
     fit-margin-top="0"
     fit-margin-left="0"
     fit-margin-right="0"
     fit-margin-bottom="0" />
  <metadata
     id="metadata6541">
    <rdf:RDF>
      <cc:Work
         rdf:about="">
        <dc:format>image/svg+xml</dc:format>
        <dc:type
           rdf:resource="http://purl.org/dc/dcmitype/StillImage" />
        <dc:title></dc:title>
      </cc:Work>
    </rdf:RDF>
  </metadata>
  <g
     inkscape:label="Layer 1"
     inkscape:groupmode="layer"
     id="layer1"
     transform="translate(-72.572278,-80.13013)">
    <path
       style="fill:#ff9e2b;fill-opacity:1;stroke-width:0.41607431"
       d="m 92.496004,177.33979 c -0.421726,-1.63855 -0.596493,-5.06509 -0.615458,-12.06616 -0.02347,-8.67858 -0.113933,-9.95519 -0.804721,-11.35634 -1.806911,-3.66517 -5.558255,-3.6732 -10.859857,-0.0232 l -2.080372,1.43226 2.050203,-1.92195 c 2.323546,-2.17822 5.280206,-3.81796 7.11198,-3.94424 3.002399,-0.20698 3.652049,-0.002 5.217025,1.64271 l 1.560082,1.64 0.282944,-2.81738 c 0.499627,-4.97507 -0.708362,-7.56489 -5.065186,-10.85938 -3.410633,-2.57899 -4.039996,-3.57048 -3.411281,-5.37401 0.247006,-0.70855 0.638917,-1.28827 0.870921,-1.28827 0.796736,0 7.610818,7.3664 9.062487,9.79704 2.117666,3.54574 2.168806,6.33494 0.274298,14.9594 -1.727241,7.86301 -2.307682,11.69769 -2.708144,17.89119 l -0.295929,4.57682 z m -2.660047,-14.7523 c -0.377604,-0.57629 -1.479563,-1.4715 -2.448789,-1.98934 -1.61653,-0.86368 -2.269623,-0.93754 -7.899328,-0.8935 l -6.137093,0.048 v -1.55598 c 0,-4.68995 4.117967,-9.939 10.193825,-12.99376 3.258769,-1.63842 3.073494,-1.08361 -0.917356,2.7469 -4.806974,4.61385 -6.741122,7.12729 -6.031027,7.83738 0.257338,0.25735 2.206854,0.6056 4.332245,0.7739 2.125392,0.1683 4.238823,0.44645 4.696499,0.61809 1.777402,0.6666 3.671166,2.46774 4.452994,4.2352 0.925269,2.09173 0.789919,2.74795 -0.24197,1.17309 z m -5.754972,-33.40831 c -5.430512,-7.12229 -5.860223,-14.01972 -1.352586,-21.71083 1.310092,-2.23534 7.16049,-9.950162 6.797983,-8.964389 -0.08622,0.234464 -1.307485,2.668499 -2.713912,5.408959 -3.309626,6.44891 -4.308091,9.71508 -4.308091,14.0927 0,3.90428 0.718764,7.05691 2.426168,10.64168 0.657069,1.37953 1.073771,2.50824 0.926012,2.50824 -0.147769,0 -0.94677,-0.88936 -1.775574,-1.97636 z m 12.342533,0 c 2.775466,-5.56038 3.218764,-11.31785 1.305457,-16.95501 -0.999986,-2.94624 -4.599963,-10.25909 -6.444085,-13.090249 -1.580439,-2.426327 0.601199,-0.05756 3.543164,3.847199 6.870846,9.11927 8.211226,15.21927 4.909301,22.34213 -1.074466,2.31782 -3.468447,5.796 -4.00545,5.81942 -0.162183,0.007 0.149043,-0.87649 0.691613,-1.96349 z m -8.447582,-3.74467 c -0.473952,-0.40047 -1.337254,-1.69148 -1.918426,-2.86892 -2.091613,-4.2375 -1.045995,-8.13757 2.49501,-9.3062 4.01011,-1.32347 7.083333,1.70911 6.22437,6.14207 l -0.302333,1.56027 -0.542192,-1.80209 c -0.738508,-2.45453 -1.682825,-3.39884 -3.398886,-3.39884 -2.157919,0 -3.452702,1.62303 -3.45072,4.32551 0.0012,2.26301 1.097087,4.63718 2.36387,5.12329 0.385495,0.14792 1.391177,-0.11335 2.252698,-0.58527 1.724671,-0.94469 1.843545,-0.22274 0.146426,0.88924 -1.302331,0.85332 -2.802616,0.82267 -3.869817,-0.079 z"
       id="path6090-9"
       inkscape:connector-curvature="0"
       sodipodi:nodetypes="scccccccccccscsscscsccscccccsccsccsscsscsccsccccccccscccccc"
       inkscape:export-xdpi="500"
       inkscape:export-ydpi="500" />
  </g>
</svg>
