<?xml version="1.0" encoding="UTF-8" standalone="no"?>
<!-- Created with Inkscape (http://www.inkscape.org/) -->

<svg
   xmlns:dc="http://purl.org/dc/elements/1.1/"
   xmlns:cc="http://creativecommons.org/ns#"
   xmlns:rdf="http://www.w3.org/1999/02/22-rdf-syntax-ns#"
   xmlns:svg="http://www.w3.org/2000/svg"
   xmlns="http://www.w3.org/2000/svg"
   xmlns:sodipodi="http://sodipodi.sourceforge.net/DTD/sodipodi-0.dtd"
   xmlns:inkscape="http://www.inkscape.org/namespaces/inkscape"
   width="53.09478mm"
   height="41.790115mm"
   viewBox="0 0 53.094781 41.790116"
   version="1.1"
   id="svg7725"
   inkscape:version="0.92.3 (2405546, 2018-03-11)"
   sodipodi:docname="pose5.svg">
  <defs
     id="defs7719" />
  <sodipodi:namedview
     id="base"
     pagecolor="#ffffff"
     bordercolor="#666666"
     borderopacity="1.0"
     inkscape:pageopacity="0.0"
     inkscape:pageshadow="2"
     inkscape:zoom="0.35"
     inkscape:cx="-388.88329"
     inkscape:cy="126.13767"
     inkscape:document-units="mm"
     inkscape:current-layer="layer1"
     showgrid="false"
     fit-margin-top="0"
     fit-margin-left="0"
     fit-margin-right="0"
     fit-margin-bottom="0"
     inkscape:window-width="1920"
     inkscape:window-height="1017"
     inkscape:window-x="1912"
     inkscape:window-y="-8"
     inkscape:window-maximized="1" />
  <metadata
     id="metadata7722">
    <rdf:RDF>
      <cc:Work
         rdf:about="">
        <dc:format>image/svg+xml</dc:format>
        <dc:type
           rdf:resource="http://purl.org/dc/dcmitype/StillImage" />
        <dc:title></dc:title>
      </cc:Work>
    </rdf:RDF>
  </metadata>
  <g
     inkscape:label="Layer 1"
     inkscape:groupmode="layer"
     id="layer1"
     transform="translate(-79.835489,-140.41714)">
    <path
       style="fill:#ff9e2b;fill-opacity:1;stroke-width:0.35277781"
       d="m 80.688746,141.36946 c 0.39048,0.58457 1.2142,2.34552 1.83049,3.91322 2.06148,5.24398 3.49433,7.20048 7.66332,10.46402 3.4782,2.72276 4.76129,4.04019 7.87071,8.08133 3.984584,5.17857 5.227614,6.14572 7.075884,5.5055 1.55089,-0.53721 2.38072,-2.25821 2.35768,-4.88964 -0.025,-2.8549 0.57415,-3.84162 3.0344,-4.99733 1.98068,-0.93042 4.65547,-1.54919 4.64126,-1.07368 -0.005,0.17117 -1.12539,1.07311 -2.48953,2.00429 -2.48998,1.69973 -3.6637,3.2423 -3.71975,4.88866 -0.0645,1.89223 -3.04316,6.34098 -4.84615,7.23772 -1.45498,0.72363 -4.189034,-1.92506 -8.107664,-7.85453 -2.87736,-4.35388 -4.66135,-6.2066 -7.52646,-7.81641 -2.68508,-1.50866 -4.68605,-3.76673 -5.88868,-6.64531 -0.91167,-2.18214 -2.96837,-9.53884 -2.72963,-9.76373 0.0682,-0.0643 0.44365,0.36132 0.83412,0.94589 z m 50.641014,3.45561 c -2.29442,2.56861 -3.42714,4.23871 -6.98708,10.30192 -1.7497,2.98003 -4.99128,8.12427 -7.20353,11.43164 -2.21223,3.30738 -4.76873,7.32747 -5.68111,8.93355 -2.97569,5.23818 -6.23795,7.52993 -9.19082,6.45659 -1.38366,-0.50295 -3.412674,-2.816 -4.651964,-5.30317 -1.46184,-2.93385 -1.41132,-3.64237 0.0899,-1.26057 2.332344,3.70044 4.165424,4.80891 6.850994,4.1428 2.97139,-0.73699 4.83916,-3.26383 7.25737,-9.81821 1.55714,-4.22051 3.41167,-7.21976 6.37021,-10.30222 3.95358,-4.11921 4.94113,-6.49183 3.74212,-8.99063 -1.35441,-2.82269 -4.6139,-2.28561 -6.24001,1.02816 -0.71038,1.44765 -0.97245,3.57489 -0.52697,4.27738 0.13619,0.21479 0.55961,0.57994 0.94092,0.81149 0.64609,0.39232 0.62726,0.41974 -0.27674,0.40274 -1.55637,-0.0293 -2.3473,-1.1718 -2.28375,-3.29895 0.17745,-5.93964 6.46295,-9.02004 9.63922,-4.72399 0.38963,0.52698 0.69904,1.37321 0.68756,1.8805 -0.0184,0.81708 0.10986,0.72485 1.12438,-0.80811 2.06333,-3.11778 4.03598,-5.31196 5.70785,-6.34889 3.63644,-2.08685 2.06248,-0.41961 0.63147,1.18797 z"
       id="path6090-84"
       inkscape:connector-curvature="0"
       sodipodi:nodetypes="sccscssscccccsssccccscccscsccccsccccc" />
  </g>
</svg>
