<?xml version="1.0" encoding="UTF-8" standalone="no"?>
<!-- Created with Inkscape (http://www.inkscape.org/) -->

<svg
   xmlns:dc="http://purl.org/dc/elements/1.1/"
   xmlns:cc="http://creativecommons.org/ns#"
   xmlns:rdf="http://www.w3.org/1999/02/22-rdf-syntax-ns#"
   xmlns:svg="http://www.w3.org/2000/svg"
   xmlns="http://www.w3.org/2000/svg"
   xmlns:sodipodi="http://sodipodi.sourceforge.net/DTD/sodipodi-0.dtd"
   xmlns:inkscape="http://www.inkscape.org/namespaces/inkscape"
   width="71.389702mm"
   height="69.240913mm"
   viewBox="0 0 71.389702 69.240914"
   version="1.1"
   id="svg8857"
   inkscape:version="0.92.3 (2405546, 2018-03-11)"
   sodipodi:docname="pose3_sm.svg">
  <defs
     id="defs8851" />
  <sodipodi:namedview
     id="base"
     pagecolor="#ffffff"
     bordercolor="#666666"
     borderopacity="1.0"
     inkscape:pageopacity="0.0"
     inkscape:pageshadow="2"
     inkscape:zoom="1.4"
     inkscape:cx="-225.73695"
     inkscape:cy="13.117979"
     inkscape:document-units="mm"
     inkscape:current-layer="layer1"
     showgrid="false"
     fit-margin-top="0"
     fit-margin-left="0"
     fit-margin-right="0"
     fit-margin-bottom="0"
     inkscape:window-width="1920"
     inkscape:window-height="1017"
     inkscape:window-x="1912"
     inkscape:window-y="-8"
     inkscape:window-maximized="1" />
  <metadata
     id="metadata8854">
    <rdf:RDF>
      <cc:Work
         rdf:about="">
        <dc:format>image/svg+xml</dc:format>
        <dc:type
           rdf:resource="http://purl.org/dc/dcmitype/StillImage" />
        <dc:title></dc:title>
      </cc:Work>
    </rdf:RDF>
  </metadata>
  <g
     inkscape:label="Layer 1"
     inkscape:groupmode="layer"
     id="layer1"
     transform="translate(-89.150386,-110.02842)">
    <path
       style="fill:#ff9e2b;fill-opacity:1;stroke-width:0.21112032"
       d="m 125.73739,176.62352 c -2.89418,-0.42165 -5.10927,-1.38435 -6.35313,-2.76116 -0.90692,-1.00386 -0.93041,-1.65159 -0.0857,-2.36243 0.59944,-0.5044 1.45779,-0.81307 4.81408,-1.73116 1.85482,-0.50736 1.96201,-0.79686 1.23145,-3.32616 -0.56643,-1.96111 -0.71565,-3.58699 -0.3781,-4.11965 0.12642,-0.19946 0.22367,-0.0546 0.32462,0.48354 0.0793,0.42256 0.56664,1.63636 1.08301,2.69734 0.96189,1.97632 1.16562,3.13031 0.747,4.23135 -0.2882,0.75802 -1.03793,1.14643 -3.50977,1.81831 -1.23413,0.33545 -2.35376,0.71981 -2.4881,0.85415 -0.1849,0.1849 -0.14228,0.43463 0.1754,1.02798 0.87142,1.62744 4.11925,2.6663 9.18115,2.9367 2.26478,0.12098 2.655,0.1833 1.90007,0.30348 -1.28069,0.20389 -5.08944,0.17391 -6.64206,-0.0522 z m 5.16423,-1.24733 c -1.88793,-0.22575 -3.90512,-0.9314 -5.22521,-1.82786 -0.60962,-0.41396 -1.10839,-0.82507 -1.10839,-0.91353 0,-0.0885 0.55603,0.0637 1.2356,0.33821 2.11743,0.85527 3.99683,1.21204 6.47028,1.22827 2.01079,0.0124 2.44001,-0.0476 3.19964,-0.45246 1.09321,-0.58282 1.85163,-1.48903 1.55018,-1.85225 -0.1331,-0.16035 -1.1089,-0.30101 -2.58729,-0.37294 -1.30552,-0.0636 -2.68529,-0.22956 -3.0662,-0.36895 -1.54431,-0.56519 -1.81326,-2.84312 -0.70375,-5.96031 0.36156,-1.01581 0.65738,-2.13771 0.65738,-2.49313 0,-0.42267 0.0816,-0.59574 0.23614,-0.50028 0.23334,0.1443 0.19776,1.34978 -0.15068,5.10142 -0.21706,2.33755 0.0603,2.52201 4.20454,2.79686 2.93093,0.19437 3.52137,0.43164 3.52137,1.41506 0,2.69187 -3.66048,4.40877 -8.23369,3.86189 z m -11.11619,-5.71967 c -1.19623,-0.2785 -1.97327,-1.08861 -1.97327,-2.0573 v -0.75675 l 0.75701,0.77938 c 0.46028,0.47388 1.04419,0.83325 1.4897,0.91683 0.98642,0.18504 2.73063,5.9e-4 3.12987,-0.33042 0.46623,-0.38694 0.40309,-1.579 -0.2036,-3.84352 -0.71984,-2.68694 -0.70101,-3.62241 0.0888,-4.41222 0.39711,-0.39711 0.82991,-0.61484 1.21396,-0.6107 0.55433,0.006 0.56676,0.0236 0.17458,0.24856 -1.15081,0.65998 -1.23234,1.94284 -0.31324,4.92866 1.09656,3.56233 1.0539,4.28817 -0.28434,4.83913 -0.93975,0.38689 -3.03952,0.54046 -4.07946,0.29835 z m 15.23304,-0.29229 c -0.11616,-0.0393 -0.55074,-0.12813 -0.96584,-0.19708 -1.79833,-0.29899 -2.02192,-1.28191 -1.12358,-4.93931 0.68036,-2.76991 0.60633,-3.68741 -0.36777,-4.55784 l -0.68875,-0.61545 0.7285,0.13995 c 0.4128,0.0793 0.98007,0.41602 1.30905,0.7771 0.71805,0.7881 0.75519,1.82732 0.15835,4.43073 -0.22628,0.98697 -0.41383,1.99775 -0.41683,2.24616 -0.0224,1.86369 3.56628,2.27462 5.0552,0.57886 0.34471,-0.3926 0.67713,-0.71382 0.73874,-0.71382 0.33426,0 0.0414,1.3183 -0.41285,1.85808 -0.68697,0.81641 -2.91175,1.36658 -4.01422,0.99267 z m -8.19284,-11.92136 c -1.34854,-1.18404 -2.02552,-3.89722 -1.31516,-5.2709 0.77081,-1.49057 2.55663,-2.22264 3.97565,-1.62974 1.05248,0.43976 1.47307,1.17758 1.46063,2.56236 -0.014,1.59094 -0.26432,1.87433 -0.60943,0.69079 -0.65483,-2.24576 -2.9857,-2.79369 -3.78154,-0.88895 -0.51958,1.24358 -0.2508,2.78499 0.67811,3.88896 0.573,0.68097 1.24352,0.81367 2.04542,0.40479 l 0.46115,-0.23511 -0.42297,0.4411 c -0.23264,0.24262 -0.7177,0.50006 -1.07793,0.57211 -0.53793,0.1076 -0.79054,0.0124 -1.41393,-0.53541 z"
       id="path6090-2"
       inkscape:connector-curvature="0"
       sodipodi:nodetypes="ccccccscccccccccscscccccccscccsscsccccssccccccsscccccccsccccccccsccccc"
       inkscape:export-xdpi="500"
       inkscape:export-ydpi="500" />
  </g>
</svg>
