<?xml version="1.0" encoding="UTF-8" standalone="no"?>
<!-- Created with Inkscape (http://www.inkscape.org/) -->

<svg
   xmlns:dc="http://purl.org/dc/elements/1.1/"
   xmlns:cc="http://creativecommons.org/ns#"
   xmlns:rdf="http://www.w3.org/1999/02/22-rdf-syntax-ns#"
   xmlns:svg="http://www.w3.org/2000/svg"
   xmlns="http://www.w3.org/2000/svg"
   xmlns:sodipodi="http://sodipodi.sourceforge.net/DTD/sodipodi-0.dtd"
   xmlns:inkscape="http://www.inkscape.org/namespaces/inkscape"
   width="56.389702mm"
   height="44.24091mm"
   viewBox="0 0 56.389702 44.24091"
   version="1.1"
   id="svg8857"
   inkscape:version="0.92.3 (2405546, 2018-03-11)"
   sodipodi:docname="pose3.svg">
  <defs
     id="defs8851" />
  <sodipodi:namedview
     id="base"
     pagecolor="#ffffff"
     bordercolor="#666666"
     borderopacity="1.0"
     inkscape:pageopacity="0.0"
     inkscape:pageshadow="2"
     inkscape:zoom="0.35"
     inkscape:cx="-424.0892"
     inkscape:cy="115.03345"
     inkscape:document-units="mm"
     inkscape:current-layer="layer1"
     showgrid="false"
     fit-margin-top="0"
     fit-margin-left="0"
     fit-margin-right="0"
     fit-margin-bottom="0"
     inkscape:window-width="1920"
     inkscape:window-height="1017"
     inkscape:window-x="1912"
     inkscape:window-y="-8"
     inkscape:window-maximized="1" />
  <metadata
     id="metadata8854">
    <rdf:RDF>
      <cc:Work
         rdf:about="">
        <dc:format>image/svg+xml</dc:format>
        <dc:type
           rdf:resource="http://purl.org/dc/dcmitype/StillImage" />
        <dc:title></dc:title>
      </cc:Work>
    </rdf:RDF>
  </metadata>
  <g
     inkscape:label="Layer 1"
     inkscape:groupmode="layer"
     id="layer1"
     transform="translate(-89.150386,-135.02836)">
    <path
       style="fill:#ff9e2b;fill-opacity:1;stroke-width:0.35277781"
       d="m 102.39329,178.95362 c -4.836144,-0.70457 -8.537494,-2.31322 -10.615954,-4.61385 -1.51547,-1.67744 -1.5547,-2.75977 -0.14308,-3.94757 1.00168,-0.84285 2.43595,-1.35863 8.04423,-2.89272 3.099384,-0.84781 3.278474,-1.33155 2.057734,-5.55796 -0.9465,-3.27696 -1.19585,-5.99378 -0.63179,-6.88385 0.21122,-0.3333 0.37373,-0.0912 0.54242,0.80797 0.13247,0.70611 0.94683,2.73434 1.8097,4.50721 1.60731,3.30239 1.94774,5.2307 1.24824,7.0705 -0.48157,1.26664 -1.73439,1.91568 -5.864794,3.03837 -2.06218,0.56053 -3.93308,1.20279 -4.15754,1.42726 -0.30898,0.30897 -0.23777,0.72626 0.2931,1.71772 1.456111,2.71944 6.883174,4.45535 15.341504,4.90717 3.7844,0.20214 4.43647,0.3063 3.175,0.50712 -2.14003,0.34071 -8.50437,0.2906 -11.09877,-0.0874 z m 8.62933,-2.08425 c -3.15469,-0.37724 -6.52539,-1.55637 -8.73125,-3.05432 -1.01865,-0.69174 -1.85209,-1.37869 -1.85209,-1.52652 0,-0.14786 0.9291,0.10646 2.06466,0.56514 3.53822,1.42915 6.67864,2.0253 10.81173,2.05243 3.35999,0.022 4.07722,-0.0794 5.34652,-0.75606 1.82673,-0.97388 3.09405,-2.48813 2.59033,-3.09505 -0.22235,-0.26796 -1.85294,-0.503 -4.32332,-0.6232 -2.18147,-0.10614 -4.48706,-0.38358 -5.12355,-0.6165 -2.5805,-0.94441 -3.02993,-4.75079 -1.17594,-9.95957 0.60415,-1.69738 1.09846,-3.57206 1.09846,-4.16595 0,-0.70629 0.13649,-0.99547 0.39458,-0.83596 0.38992,0.24099 0.33046,2.25544 -0.25164,8.52436 -0.36271,3.906 0.10069,4.21425 7.0257,4.6735 4.89752,0.3248 5.88413,0.72127 5.88413,2.36453 0,4.49806 -6.11659,7.36697 -13.75832,6.45317 z M 92.447677,167.3119 c -1.998881,-0.46536 -3.297291,-1.81905 -3.297291,-3.4377 v -1.26452 l 1.26494,1.30232 c 0.76912,0.79183 1.74483,1.39234 2.489261,1.53199 1.648299,0.30922 4.56282,10e-4 5.229929,-0.55212 0.779081,-0.64657 0.673571,-2.63848 -0.340179,-6.42244 -1.202851,-4.48981 -1.171401,-6.05297 0.148359,-7.37273 0.663561,-0.66356 1.38675,-1.02738 2.02848,-1.02047 0.926294,0.01 0.947054,0.0395 0.291724,0.41536 -1.922964,1.10281 -2.059194,3.24644 -0.523414,8.23569 1.832324,5.95257 1.761054,7.16543 -0.47513,8.08606 -1.570309,0.64651 -5.07896,0.90311 -6.816679,0.49856 z m 25.454113,-0.48842 c -0.19403,-0.0658 -0.92028,-0.214 -1.61389,-0.32932 -3.00499,-0.49961 -3.37861,-2.14204 -1.87749,-8.25347 1.13687,-4.62847 1.01317,-6.1616 -0.61454,-7.61608 l -1.15088,-1.02839 1.21729,0.23377 c 0.68978,0.13246 1.63769,0.69517 2.18741,1.29853 1.19985,1.31688 1.26191,3.0534 0.2646,7.40364 -0.3781,1.64923 -0.69151,3.33821 -0.6965,3.75329 -0.0374,3.1142 5.95917,3.80086 8.44712,0.96726 0.576,-0.65602 1.13149,-1.19277 1.23442,-1.19277 0.55856,0 0.0691,2.20286 -0.68984,3.10481 -1.14792,1.36422 -4.8655,2.28353 -6.7077,1.65873 z m -13.69005,-19.92035 c -2.25341,-1.97852 -3.38463,-6.51217 -2.19763,-8.80757 1.288,-2.49072 4.27209,-3.71398 6.64324,-2.72326 1.75867,0.73483 2.46147,1.96773 2.44068,4.28165 -0.0239,2.65843 -0.44167,3.13199 -1.01834,1.1543 -1.09421,-3.75261 -4.98904,-4.66818 -6.31888,-1.48541 -0.86824,2.07798 -0.41912,4.65365 1.13311,6.49837 0.95747,1.13789 2.0779,1.35962 3.41786,0.6764 l 0.77056,-0.39289 -0.70677,0.73709 c -0.38874,0.4054 -1.19927,0.83559 -1.80119,0.95598 -0.89887,0.17977 -1.32098,0.0199 -2.36264,-0.89466 z"
       id="path6090-2"
       inkscape:connector-curvature="0"
       sodipodi:nodetypes="ccccccscccccccccscscccccccscccsscsccccssccccccsscccccccsccccccccsccccc"
       inkscape:export-xdpi="500"
       inkscape:export-ydpi="500" />
  </g>
</svg>
