<?xml version="1.0" encoding="UTF-8" standalone="no"?>
<!-- Created with Inkscape (http://www.inkscape.org/) -->

<svg
   xmlns:dc="http://purl.org/dc/elements/1.1/"
   xmlns:cc="http://creativecommons.org/ns#"
   xmlns:rdf="http://www.w3.org/1999/02/22-rdf-syntax-ns#"
   xmlns:svg="http://www.w3.org/2000/svg"
   xmlns="http://www.w3.org/2000/svg"
   xmlns:sodipodi="http://sodipodi.sourceforge.net/DTD/sodipodi-0.dtd"
   xmlns:inkscape="http://www.inkscape.org/namespaces/inkscape"
   width="20.253176mm"
   height="23.925171mm"
   viewBox="0 0 20.253176 23.925171"
   version="1.1"
   id="svg8291"
   inkscape:version="0.92.3 (2405546, 2018-03-11)"
   sodipodi:docname="pose2_sm.svg">
  <defs
     id="defs8285" />
  <sodipodi:namedview
     id="base"
     pagecolor="#ffffff"
     bordercolor="#666666"
     borderopacity="1.0"
     inkscape:pageopacity="0.0"
     inkscape:pageshadow="2"
     inkscape:zoom="1.979899"
     inkscape:cx="34.101383"
     inkscape:cy="18.516207"
     inkscape:document-units="mm"
     inkscape:current-layer="layer1"
     showgrid="false"
     fit-margin-top="0"
     fit-margin-left="0"
     fit-margin-right="0"
     fit-margin-bottom="0"
     inkscape:window-width="1920"
     inkscape:window-height="1017"
     inkscape:window-x="1912"
     inkscape:window-y="-8"
     inkscape:window-maximized="1" />
  <metadata
     id="metadata8288">
    <rdf:RDF>
      <cc:Work
         rdf:about="">
        <dc:format>image/svg+xml</dc:format>
        <dc:type
           rdf:resource="http://purl.org/dc/dcmitype/StillImage" />
        <dc:title></dc:title>
      </cc:Work>
    </rdf:RDF>
  </metadata>
  <g
     inkscape:label="Layer 1"
     inkscape:groupmode="layer"
     id="layer1"
     transform="translate(-80.587704,-120.99574)">
    <path
       style="fill:#ff9e2b;fill-opacity:1;stroke-width:0.0777728"
       d="m 87.271239,143.95497 c -0.498301,-0.73377 -0.805026,-1.39131 -1.072054,-2.29816 -0.296861,-1.00817 -0.597468,-1.5299 -1.330142,-2.30855 l -0.556625,-0.59156 -0.248154,0.23331 c -0.425359,0.39994 -1.147146,1.57628 -1.861086,3.03314 -0.377315,0.76995 -0.751553,1.56602 -0.831637,1.76905 -0.08008,0.20301 -0.171665,0.36926 -0.203514,0.36942 -0.156317,6e-4 0.206089,-1.2718 0.7751,-2.72176 0.955724,-2.4354 2.139022,-4.27751 2.747704,-4.27751 0.06789,0 0.313501,0.14197 0.545798,0.31549 1.309368,0.97808 2.320808,1.05497 2.794351,0.21243 0.09357,-0.16649 0.208488,-0.28994 0.255361,-0.27431 0.19101,0.0637 0.384976,0.45627 0.606253,1.22707 0.270948,0.94384 0.62751,1.73755 1.079666,2.40338 0.337313,0.49671 0.344009,0.54529 0.04851,0.35167 -0.265454,-0.17394 -0.729009,-0.87071 -1.330829,-2.00039 -0.470894,-0.88389 -0.542076,-0.98037 -0.652069,-0.88359 -0.225816,0.19866 -0.582915,0.21158 -1.409931,0.0511 -0.77766,-0.15097 -1.163387,-0.19349 -1.163387,-0.1282 0,0.25316 0.546205,1.72994 1.125189,3.04219 0.726963,1.64764 1.096609,2.66697 1.034605,2.85297 -0.01758,0.0527 -0.176463,-0.11698 -0.353106,-0.37711 z m -0.795643,-6.69088 c -0.106929,-0.018 -0.316922,-0.0735 -0.466634,-0.12318 l -0.272206,-0.0906 0.500494,-0.0501 c 0.41433,-0.0416 0.531872,-0.0866 0.68274,-0.262 0.239093,-0.27797 0.199449,-0.47882 -0.341049,-1.72798 -0.401615,-0.92816 -0.702117,-1.86361 -0.623819,-1.94191 0.02002,-0.02 0.244205,0.35925 0.498223,0.8428 0.254009,0.48355 0.662328,1.18038 0.907371,1.54854 0.24504,0.36815 0.493974,0.83035 0.553187,1.02708 l 0.107652,0.35772 -0.250337,0.15471 c -0.137688,0.0851 -0.40678,0.19077 -0.597994,0.23483 -0.360891,0.0831 -0.377262,0.0838 -0.697633,0.0301 z m 2.192304,-0.18253 c -0.171851,-0.16011 -0.207075,-0.35701 -0.121194,-0.67749 0.07574,-0.28263 0.151979,-0.20076 0.120502,0.12939 -0.02465,0.2584 0.0014,0.32432 0.172591,0.43646 0.377727,0.2475 1.14911,-0.0237 1.335359,-0.46944 0.115254,-0.27584 0.08729,-0.45349 -0.106999,-0.6797 -0.135627,-0.15793 -0.633718,-0.18408 -0.895072,-0.047 l -0.169873,0.0891 0.155541,-0.17759 c 0.587148,-0.67038 1.51658,-0.33987 1.51658,0.5393 0,0.67532 -0.450249,1.01556 -1.34387,1.01556 -0.388996,0 -0.529359,-0.0336 -0.663564,-0.15856 z"
       id="path6090-8"
       inkscape:connector-curvature="0"
       sodipodi:nodetypes="ccccccccsssccccccccsccccsccscsccscccccccccccccssc"
       inkscape:export-xdpi="500"
       inkscape:export-ydpi="500" />
  </g>
</svg>
