<?xml version="1.0" encoding="UTF-8" standalone="no"?>
<!-- Created with Inkscape (http://www.inkscape.org/) -->

<svg
   xmlns:dc="http://purl.org/dc/elements/1.1/"
   xmlns:cc="http://creativecommons.org/ns#"
   xmlns:rdf="http://www.w3.org/1999/02/22-rdf-syntax-ns#"
   xmlns:svg="http://www.w3.org/2000/svg"
   xmlns="http://www.w3.org/2000/svg"
   xmlns:sodipodi="http://sodipodi.sourceforge.net/DTD/sodipodi-0.dtd"
   xmlns:inkscape="http://www.inkscape.org/namespaces/inkscape"
   width="30.33964mm"
   height="53.009705mm"
   viewBox="0 0 30.33964 53.009705"
   version="1.1"
   id="svg7725"
   inkscape:version="0.92.3 (2405546, 2018-03-11)"
   sodipodi:docname="pose1.svg">
  <defs
     id="defs7719" />
  <sodipodi:namedview
     id="base"
     pagecolor="#ffffff"
     bordercolor="#666666"
     borderopacity="1.0"
     inkscape:pageopacity="0.0"
     inkscape:pageshadow="2"
     inkscape:zoom="0.35"
     inkscape:cx="-426.95096"
     inkscape:cy="151.6044"
     inkscape:document-units="mm"
     inkscape:current-layer="layer1"
     showgrid="false"
     fit-margin-top="0"
     fit-margin-left="0"
     fit-margin-right="0"
     fit-margin-bottom="0"
     inkscape:window-width="1920"
     inkscape:window-height="1017"
     inkscape:window-x="1912"
     inkscape:window-y="-8"
     inkscape:window-maximized="1" />
  <metadata
     id="metadata7722">
    <rdf:RDF>
      <cc:Work
         rdf:about="">
        <dc:format>image/svg+xml</dc:format>
        <dc:type
           rdf:resource="http://purl.org/dc/dcmitype/StillImage" />
        <dc:title></dc:title>
      </cc:Work>
    </rdf:RDF>
  </metadata>
  <g
     inkscape:label="Layer 1"
     inkscape:groupmode="layer"
     id="layer1"
     transform="translate(-89.907561,-135.93563)">
    <path
       style="fill:#ff9e2b;fill-opacity:1;stroke-width:0.35277781"
       d="m 100.31528,188.68606 c -4.206209,-0.63261 -6.984289,-1.7986 -9.084029,-3.81263 -1.95727,-1.87737 -1.74742,-3.35406 0.6526,-4.59224 0.40743,-0.21019 1.99493,-0.71147 3.52778,-1.11392 5.337139,-1.40131 5.602609,-1.71147 4.39808,-5.13857 -0.84967,-2.41748 -0.93975,-4.67666 -0.22519,-5.64759 0.497629,-0.67618 0.507009,-0.67591 0.744989,0.0208 0.13256,0.38805 0.7789,1.99265 1.43631,3.56577 1.30435,3.1212 1.45585,4.47634 0.70212,6.28027 -0.62939,1.50635 -0.73113,1.56261 -5.151279,2.8486 -3.20538,0.93257 -3.71971,1.18643 -3.81962,1.88527 -0.17928,1.25393 2.00999,3.08393 4.67359,3.90663 2.809759,0.86785 6.819919,1.4332 10.548649,1.48713 2.08014,0.0301 2.58966,0.11688 1.82655,0.31106 -1.35674,0.34523 -7.93387,0.34488 -10.23055,-8e-4 z m 5.11527,-2.30624 c -2.53968,-0.6984 -5.36218,-2.08252 -6.205819,-3.04327 -0.66464,-0.75691 -0.66423,-0.7631 0.0322,-0.47919 4.604549,1.87709 11.433139,2.79724 14.463079,1.9489 1.75245,-0.49064 3.85925,-2.18152 3.61958,-2.905 -0.0972,-0.29331 -1.28855,-0.53131 -3.47086,-0.6934 -5.9124,-0.4391 -6.90439,-1.06912 -7.27061,-4.61755 -0.14591,-1.4137 -0.005,-2.51456 0.53471,-4.17246 0.4031,-1.23865 0.84302,-2.87597 0.97759,-3.6385 l 0.24469,-1.3864 0.68338,0.84393 c 0.74625,0.92158 0.73753,2.3118 -0.0378,6.02693 -0.77697,3.72299 0.006,4.31582 6.21947,4.70887 4.46236,0.28226 5.02704,0.53106 5.02704,2.21495 0,1.96337 -1.32203,3.68991 -3.59223,4.69136 -2.41148,1.06377 -8.23275,1.32352 -11.22444,0.50083 z M 98.240181,164.126 c -4.68007,-5.9629 -5.33204,-12.13929 -1.95101,-18.48275 0.91222,-1.71151 6.506109,-9.52051 6.819899,-9.52051 0.0592,0 -1.06373,2.34155 -2.49545,5.20344 -2.795799,5.58858 -4.002509,9.44408 -4.002509,12.78819 0,2.49994 1.10333,6.89246 2.45898,9.78958 0.56745,1.21268 0.963009,2.20486 0.87903,2.20486 -0.084,0 -0.85301,-0.89226 -1.70894,-1.98281 z m 11.411789,-0.13385 c 2.25132,-4.94932 2.69538,-9.42097 1.40202,-14.11821 -0.407,-1.47814 -2.04979,-5.19892 -3.73506,-8.45956 -1.65467,-3.20144 -2.85529,-5.66205 -2.66805,-5.46802 0.18724,0.19402 1.65251,2.09123 3.25616,4.21602 4.9209,6.52003 6.75828,11.50504 5.99125,16.2549 -0.40303,2.49579 -2.31105,6.48165 -4.04827,8.45681 l -1.24111,1.41111 z m -8.01858,-1.85209 c -1.18252,-1.25963 -2.183889,-3.82546 -2.192309,-5.61737 -0.006,-1.26211 0.20434,-1.90068 0.896869,-2.72371 1.69355,-2.01267 4.96458,-2.09034 6.48767,-0.15405 0.77918,0.99057 0.9944,3.73476 0.36882,4.70277 -0.26568,0.41111 -0.34318,0.30882 -0.34737,-0.45849 -0.007,-1.23093 -0.85119,-2.91224 -1.60871,-3.20293 -2.67355,-1.02593 -4.78764,1.46193 -3.9722,4.67451 0.62612,2.46675 2.66629,3.71834 3.81162,2.3383 0.24154,-0.29104 0.60615,-0.52917 0.81024,-0.52917 0.20409,0 -0.002,0.39688 -0.45747,0.88195 -1.07183,1.14093 -2.77182,1.1804 -3.79716,0.0882 z"
       id="path6090-6"
       inkscape:connector-curvature="0"
       sodipodi:nodetypes="cccscccsccccccccccccccccccsssscccccscsssccccscsccccccccccccsccc"
       inkscape:export-xdpi="500"
       inkscape:export-ydpi="500" />
  </g>
</svg>
