<?xml version="1.0" encoding="iso-8859-1"?>
<!-- Generator: Adobe Illustrator 19.0.0, SVG Export Plug-In . SVG Version: 6.00 Build 0)  -->
<svg version="1.1" id="Capa_1" xmlns="http://www.w3.org/2000/svg" xmlns:xlink="http://www.w3.org/1999/xlink" x="0px" y="0px"
	 viewBox="0 0 512 512" style="enable-background:new 0 0 512 512;" xml:space="preserve">
<g>
	<g>
		<g>
			<path d="M256,213.333c-28.277,0-51.2,22.923-51.2,51.2c0,28.277,22.923,51.2,51.2,51.2s51.2-22.923,51.2-51.2
				C307.169,236.269,284.264,213.364,256,213.333z M256,298.667c-18.851,0-34.133-15.282-34.133-34.133
				c0-18.851,15.282-34.133,34.133-34.133s34.133,15.282,34.133,34.133C290.113,283.376,274.843,298.647,256,298.667z"/>
			<path d="M396.1,109.675c-2.203-1.364-4.291-2.907-6.242-4.612c-9.826-10.509-17.178-23.08-21.52-36.796H384
				c2.263,0.001,4.434-0.898,6.035-2.499c1.6-1.6,2.499-3.771,2.499-6.035V25.6c0.001-2.263-0.898-4.434-2.499-6.035
				c-1.6-1.6-3.771-2.499-6.035-2.499h-8.533V8.533c0.001-2.263-0.898-4.434-2.499-6.035c-1.6-1.6-3.771-2.499-6.035-2.499H145.067
				c-2.263-0.001-4.434,0.898-6.035,2.499c-1.6,1.6-2.499,3.771-2.499,6.035v8.533H128c-2.263-0.001-4.434,0.898-6.035,2.499
				c-1.6,1.6-2.499,3.771-2.499,6.035v34.133c-0.001,2.263,0.898,4.434,2.499,6.035c1.6,1.6,3.771,2.499,6.035,2.499h15.661
				c-4.342,13.716-11.694,26.287-21.52,36.796c-1.951,1.706-4.038,3.248-6.242,4.613c-14.625,9.804-39.1,26.221-39.1,86.592V409.6
				c0.214,20.944,5.788,41.485,16.189,59.666c0.457,0.79,0.938,1.575,1.423,2.362c0.666,1.061,1.303,2.13,2.014,3.171
				c1.543,2.297,3.246,4.547,5.054,6.76l0.37,0.442c13.617,16.43,33.143,26.855,54.371,29.029c0.771,0.101,1.549,0.193,2.334,0.277
				c4.022,0.445,8.065,0.676,12.112,0.693h170.667c4.047-0.017,8.089-0.248,12.112-0.693c0.785-0.084,1.563-0.176,2.334-0.277
				c21.229-2.174,40.754-12.598,54.371-29.029l0.37-0.442c1.809-2.215,3.514-4.467,5.057-6.765c0.709-1.038,1.344-2.104,2.008-3.162
				c0.486-0.789,0.967-1.575,1.425-2.367c10.401-18.18,15.975-38.721,16.189-59.666V196.267
				C435.2,135.896,410.725,119.479,396.1,109.675z M136.533,51.2V34.133h8.533c2.263,0.001,4.434-0.898,6.035-2.499
				c1.6-1.6,2.499-3.771,2.499-6.035v-8.533h204.8V25.6c-0.001,2.263,0.898,4.434,2.499,6.035c1.6,1.6,3.771,2.499,6.035,2.499
				h8.533V51.2H136.533z M390.61,477.677c-1.6,1.497-3.278,2.908-5.027,4.228c-0.44,0.322-0.93,0.573-1.379,0.883
				c-2.248,1.562-4.596,2.975-7.028,4.231c-0.657,0.335-1.358,0.608-2.03,0.922c-2.432,1.141-4.931,2.136-7.483,2.978
				c-0.926,0.303-1.873,0.576-2.823,0.844c-2.677,0.748-5.393,1.351-8.136,1.807c-1.046,0.176-2.07,0.384-3.142,0.522
				c-4.054,0.548-8.139,0.829-12.23,0.842H170.667c-4.1-0.011-8.195-0.294-12.258-0.846c-0.994-0.129-1.944-0.324-2.917-0.485
				c-2.884-0.472-5.739-1.108-8.55-1.905c-0.766-0.219-1.53-0.44-2.281-0.681c-2.913-0.937-5.758-2.073-8.516-3.397
				c-0.297-0.144-0.612-0.263-0.906-0.411c-8.499-4.305-15.936-10.444-21.775-17.972c-0.115-0.148-0.251-0.268-0.365-0.418
				c-0.134-0.173-0.232-0.361-0.365-0.535c-1.802-2.394-3.461-4.892-4.968-7.482h296.467
				C400.599,467.101,396.002,472.795,390.61,477.677z M418.133,409.6c-0.327,11.615-2.373,23.117-6.069,34.133H100.023
				c-3.719-11.013-5.793-22.515-6.156-34.133v-51.2h324.267V409.6z M418.133,341.333H93.867V230.4h22.983
				c29.406,0.516,58.145-8.784,81.675-26.429c16.96-11.352,37.082-17.036,57.475-16.237c20.392-0.798,40.513,4.885,57.475,16.233
				c23.528,17.648,52.268,26.949,81.675,26.433h22.983V341.333z M418.133,213.333H395.15c-25.582,0.519-50.608-7.499-71.125-22.788
				c-19.933-13.8-43.798-20.774-68.025-19.879c-24.228-0.896-48.094,6.08-68.025,19.883c-20.519,15.286-45.544,23.302-71.125,22.783
				H93.867v-17.067c0-51.267,18.975-63.996,31.542-72.421c3.142-1.952,6.089-4.201,8.8-6.717
				c13.074-13.685,22.389-30.517,27.042-48.862h189.5c4.653,18.345,13.968,35.177,27.042,48.862c2.711,2.516,5.658,4.765,8.8,6.717
				c12.567,8.425,31.542,21.154,31.542,72.421V213.333z"/>
		</g>
	</g>
</g>
<g>
</g>
<g>
</g>
<g>
</g>
<g>
</g>
<g>
</g>
<g>
</g>
<g>
</g>
<g>
</g>
<g>
</g>
<g>
</g>
<g>
</g>
<g>
</g>
<g>
</g>
<g>
</g>
<g>
</g>
</svg>
