<svg height="512pt" viewBox="0 0 512 512.00075" width="512pt" xmlns="http://www.w3.org/2000/svg"><path d="m498.769531 239.441406c-12.082031-15.433594-31.773437-35.375-52.457031-50.242187-6.488281-4.664063-9.796875-12.648438-8.503906-20.535157 4.113281-25.148437 3.9375-53.1875 1.5625-72.644531-1.492188-12.238281-11.152344-21.898437-23.390625-23.390625-19.457031-2.371094-47.496094-2.550781-72.640625 1.5625-7.886719 1.292969-15.875-2.015625-20.539063-8.503906-14.867187-20.683594-34.804687-40.375-50.238281-52.457031-9.726562-7.613281-23.398438-7.613281-33.121094 0-15.433594 12.082031-35.375 31.773437-50.242187 52.457031-4.664063 6.488281-12.648438 9.796875-20.535157 8.503906-25.148437-4.113281-53.1875-3.933594-72.644531-1.5625-12.238281 1.492188-21.898437 11.152344-23.390625 23.390625-2.371094 19.457031-2.550781 47.496094 1.5625 72.644531 1.292969 7.886719-2.015625 15.871094-8.503906 20.535157-20.683594 14.867187-40.375 34.808593-52.457031 50.242187-7.613281 9.722656-7.613281 23.394532 0 33.121094 12.082031 15.433594 31.773437 35.371094 52.457031 50.238281 6.488281 4.664063 9.796875 12.652344 8.503906 20.539063-4.113281 25.144531-3.933594 53.183594-1.5625 72.640625 1.492188 12.238281 11.152344 21.898437 23.390625 23.390625 19.457031 2.371094 47.496094 2.550781 72.644531-1.5625 7.886719-1.292969 15.871094 2.015625 20.535157 8.507812 14.867187 20.679688 34.808593 40.371094 50.242187 52.457032 9.722656 7.613281 23.394532 7.613281 33.121094 0 15.433594-12.082032 35.371094-31.777344 50.238281-52.457032 4.664063-6.492187 12.652344-9.800781 20.539063-8.507812 25.144531 4.113281 53.183594 3.933594 72.640625 1.5625 12.238281-1.492188 21.898437-11.152344 23.390625-23.390625 2.375-19.457031 2.550781-47.496094-1.5625-72.640625-1.289063-7.886719 2.015625-15.875 8.503906-20.539063 20.683594-14.867187 40.375-34.804687 52.457031-50.238281 7.613281-9.726562 7.613281-23.398438 0-33.121094zm0 0" fill="#eea849"/><path d="m440.980469 379.820312c-327.457031 52.105469-323.542969-198.613281-287.019531-307.53125-20.882813-2.058593-42.214844-1.578124-57.945313.339844-12.234375 1.492188-21.894531 11.152344-23.390625 23.390625-2.371094 19.457031-2.546875 47.496094 1.566406 72.644531 1.289063 7.886719-2.015625 15.871094-8.507812 20.535157-20.679688 14.867187-40.371094 34.808593-52.457032 50.242187-7.613281 9.722656-7.613281 23.394532 0 33.121094 12.085938 15.433594 31.777344 35.371094 52.457032 50.238281 6.492187 4.664063 9.796875 12.652344 8.507812 20.539063-4.113281 25.144531-3.9375 53.183594-1.566406 72.640625 1.492188 12.238281 11.15625 21.902343 23.390625 23.394531 19.460937 2.371094 47.5 2.546875 72.644531-1.566406 7.886719-1.289063 15.875 2.015625 20.539063 8.507812 14.863281 20.679688 34.804687 40.371094 50.238281 52.457032 9.722656 7.613281 23.398438 7.613281 33.121094 0 15.433594-12.085938 35.375-31.777344 50.242187-52.457032 4.664063-6.492187 12.648438-9.800781 20.535157-8.507812 25.148437 4.113281 53.1875 3.9375 72.644531 1.566406 12.238281-1.492188 21.898437-11.15625 23.390625-23.394531 1.25-10.230469 1.878906-22.847657 1.609375-36.160157zm0 0" fill="#e9901b"/><path d="m427.246094 256c0 94.578125-76.671875 171.246094-171.246094 171.246094-94.578125 0-171.246094-76.667969-171.246094-171.246094s76.667969-171.246094 171.246094-171.246094c94.574219 0 171.246094 76.667969 171.246094 171.246094zm0 0" fill="#f7ef87"/><path d="m183.046875 101.039062c-58.089844 27.394532-98.292969 86.480469-98.292969 154.960938 0 94.574219 76.667969 171.246094 171.246094 171.246094 62.03125 0 116.355469-32.980469 146.402344-82.363282-203.21875 44.246094-273.285156-164.019531-219.355469-243.84375zm0 0" fill="#efd176"/><path d="m191.28125 240.734375c0-16.644531-16.945312-30.136719-37.847656-30.136719-20.898438 0-37.84375 13.492188-37.84375 30.136719s16.945312 30.140625 37.84375 30.140625c20.902344 0 37.847656-13.496094 37.847656-30.140625zm0 0" fill="#eda1ab"/><path d="m396.410156 240.734375c0-16.644531-16.945312-30.136719-37.84375-30.136719-20.902344 0-37.847656 13.492188-37.847656 30.136719s16.945312 30.140625 37.847656 30.140625c20.898438 0 37.84375-13.496094 37.84375-30.140625zm0 0" fill="#eda1ab"/><path d="m23.085938 167.640625 19.605468 8.121094c.9375.390625 1.910156.574219 2.863282.574219 2.945312 0 5.738281-1.746094 6.933593-4.632813 1.585938-3.824219-.230469-8.210937-4.058593-9.796875l-19.605469-8.121094c-3.824219-1.585937-8.210938.230469-9.796875 4.058594-1.582032 3.828125.234375 8.214844 4.058594 9.796875zm19.605468 168.597656-19.605468 8.121094c-3.824219 1.585937-5.640626 5.972656-4.058594 9.796875 1.199218 2.890625 3.988281 4.632812 6.933594 4.632812.953124 0 1.929687-.183593 2.867187-.574218l19.601563-8.117188c3.828124-1.585937 5.644531-5.972656 4.058593-9.800781-1.585937-3.824219-5.972656-5.640625-9.796875-4.058594zm129.011719 123.273438c-3.824219-1.582031-8.214844.230469-9.796875 4.058593l-8.121094 19.601563c-1.585937 3.828125.230469 8.214844 4.058594 9.800781.9375.386719 1.910156.570313 2.867188.570313 2.941406 0 5.734374-1.742188 6.929687-4.628907l8.121094-19.605468c1.585937-3.824219-.234375-8.210938-4.058594-9.796875zm294.738281-283.175781c.957032 0 1.929688-.183594 2.867188-.574219l19.605468-8.121094c3.824219-1.585937 5.644532-5.972656 4.058594-9.796875-1.585937-3.824219-5.972656-5.644531-9.800781-4.058594l-19.601563 8.121094c-3.828124 1.585938-5.644531 5.972656-4.058593 9.796875 1.195312 2.886719 3.988281 4.632813 6.929687 4.632813zm-116.347656 287.234374c-1.582031-3.828124-5.96875-5.644531-9.796875-4.058593-3.828125 1.585937-5.644531 5.972656-4.058594 9.796875l8.121094 19.605468c1.195313 2.886719 3.984375 4.628907 6.929687 4.628907.957032 0 1.929688-.183594 2.867188-.570313 3.828125-1.585937 5.644531-5.972656 4.058594-9.800781zm-9.796875-411.082031c.9375.390625 1.910156.574219 2.867187.574219 2.941407 0 5.734376-1.742188 6.929688-4.632812l8.121094-19.601563c1.585937-3.828125-.230469-8.214844-4.058594-9.796875-3.824219-1.585938-8.214844.230469-9.796875 4.058594l-8.121094 19.601562c-1.585937 3.824219.230469 8.214844 4.058594 9.796875zm-178.394531-4.058593c1.199218 2.890624 3.988281 4.632812 6.933594 4.632812.957031 0 1.929687-.183594 2.867187-.574219 3.824219-1.582031 5.640625-5.972656 4.058594-9.796875l-8.121094-19.601562c-1.585937-3.828125-5.972656-5.644532-9.796875-4.058594-3.828125 1.582031-5.644531 5.972656-4.0625 9.796875zm156.59375 167.011718c4.140625 0 7.5-3.359375 7.5-7.5 0-5.796875 4.714844-10.515625 10.511718-10.515625 5.796876 0 10.515626 4.71875 10.515626 10.515625 0 4.140625 3.355468 7.5 7.5 7.5 4.140624 0 7.496093-3.359375 7.496093-7.5 0-14.070312-11.445312-25.511718-25.511719-25.511718-14.066406 0-25.511718 11.441406-25.511718 25.511718 0 4.140625 3.359375 7.5 7.5 7.5zm170.417968 128.917969-19.605468-8.121094c-3.824219-1.582031-8.210938.234375-9.796875 4.058594-1.585938 3.828125.230469 8.214844 4.058593 9.800781l19.601563 8.117188c.9375.390625 1.910156.574218 2.867187.574218 2.941407 0 5.734376-1.742187 6.929688-4.632812 1.589844-3.824219-.230469-8.210938-4.054688-9.796875zm-232.914062 90.386719c98.558594 0 178.746094-80.183594 178.746094-178.746094 0-98.558594-80.183594-178.742188-178.746094-178.742188s-178.746094 80.183594-178.746094 178.742188c0 98.5625 80.183594 178.746094 178.746094 178.746094zm0-342.492188c90.289062 0 163.746094 73.457032 163.746094 163.746094s-73.457032 163.746094-163.746094 163.746094-163.746094-73.457032-163.746094-163.746094 73.457032-163.746094 163.746094-163.746094zm248.675781 142.5625c-11.167969-14.265625-31.214843-35.335937-53.984375-51.707031-4.15625-2.988281-6.308594-8.183594-5.484375-13.238281 4.53125-27.691406 3.804688-56.777344 1.609375-74.757813-1.914062-15.707031-14.21875-28.015625-29.925781-29.929687-17.984375-2.191406-47.070313-2.921875-74.765625 1.605468-5.054688.828126-10.25-1.324218-13.234375-5.480468-16.367187-22.769532-37.441406-42.816406-51.707031-53.984375-12.472656-9.765625-29.894532-9.765625-42.367188 0-14.261718 11.167969-35.335937 31.210937-51.707031 53.984375-2.988281 4.15625-8.183594 6.3125-13.238281 5.480468-27.691406-4.527343-56.777344-3.800781-74.761719-1.605468-10.816406 1.316406-20.464844 7.789062-25.800781 17.304687-2.027344 3.613281-.738282 8.183594 2.875 10.210938 3.609375 2.023437 8.183594.738281 10.207031-2.875 3.007813-5.363281 8.441406-9.007813 14.535156-9.753907 16.960938-2.066406 44.390625-2.75 70.523438 1.523438 10.628906 1.742188 21.554687-2.789062 27.839843-11.53125 15.449219-21.492188 35.324219-40.398438 48.773438-50.929688 7.027344-5.503906 16.84375-5.503906 23.875 0 13.449219 10.53125 33.324219 29.441407 48.773438 50.929688 6.28125 8.742188 17.210937 13.269531 27.835937 11.53125 26.132813-4.277344 53.566406-3.589844 70.527344-1.523438 8.84375 1.078126 15.773437 8.007813 16.851562 16.855469 2.066407 16.957031 2.753907 44.390625-1.519531 70.523438-1.738281 10.628906 2.785156 21.554687 11.527344 27.839843 21.492187 15.449219 40.402344 35.324219 50.933594 48.769532 5.5 7.03125 5.5 16.847656 0 23.878906-10.53125 13.449219-29.441407 33.324219-50.929688 48.773438-8.746094 6.285156-13.269531 17.210937-11.53125 27.835937 4.273438 26.136719 3.585938 53.566406 1.519531 70.527344-.675781 5.542969-3.722656 10.527343-8.359375 13.671875-3.429687 2.324218-4.324218 6.988281-2 10.417968 1.449219 2.136719 3.8125 3.289063 6.214844 3.289063 1.449219 0 2.914062-.417969 4.203125-1.292969 8.222656-5.574218 13.628906-14.421875 14.832031-24.273437 2.191406-17.984375 2.921875-47.066407-1.609375-74.761719-.824219-5.050781 1.324219-10.246094 5.484375-13.234375 22.769532-16.371094 42.816406-37.445313 53.984375-51.707031 9.765625-12.472656 9.765625-29.894532 0-42.367188zm-248.675781 10.382813c9.488281 0 18.515625-4.109375 24.761719-11.277344 2.71875-3.121094 2.394531-7.859375-.726563-10.582031-3.125-2.71875-7.859375-2.394532-10.582031.726562-3.398437 3.898438-8.300781 6.132813-13.453125 6.132813s-10.058594-2.234375-13.453125-6.132813c-2.722656-3.121094-7.460937-3.445312-10.582031-.726562-3.125 2.722656-3.449219 7.460937-.726563 10.582031 6.246094 7.167969 15.269531 11.277344 24.761719 11.277344zm137.148438 188.257812c-16.691407.433594-33.953126-.652343-48.601563-3.050781-10.625-1.734375-21.550781 2.789062-27.835937 11.53125-15.445313 21.488281-35.324219 40.398438-48.773438 50.929688-7.027344 5.5-16.847656 5.5-23.875 0-13.449219-10.527344-33.324219-29.4375-48.773438-50.929688-6.285156-8.742188-17.210937-13.269531-27.835937-11.53125-26.136719 4.273438-53.570313 3.589844-70.527344 1.523438-8.84375-1.078126-15.777343-8.007813-16.855469-16.855469-2.066406-16.957031-2.753906-44.390625 1.523438-70.523438 1.738281-10.628906-2.789062-21.554687-11.53125-27.839843-21.492188-15.445313-40.398438-35.324219-50.929688-48.773438-5.503906-7.027344-5.503906-16.847656 0-23.875 10.53125-13.449219 29.4375-33.324219 50.929688-48.773438 8.742188-6.285156 13.269531-17.210937 11.53125-27.835937-2.925781-17.890625-3.300781-35.113281-3.101562-46.414063.074218-4.140624-3.222657-7.558593-7.363282-7.632812-4.121094-.054688-7.558594 3.222656-7.632812 7.363281-.210938 11.917969.1875 30.113281 3.292968 49.101563.828126 5.054687-1.324218 10.25-5.480468 13.238281-22.773438 16.371094-42.816406 37.441406-53.984375 51.707031-9.765625 12.472656-9.765625 29.894532 0 42.367188 11.167969 14.265625 31.210937 35.335937 53.984375 51.707031 4.15625 2.988281 6.308594 8.183594 5.480468 13.238281-4.527343 27.691406-3.796874 56.777344-1.605468 74.761719 1.914062 15.707031 14.21875 28.011719 29.925781 29.925781 17.984375 2.191406 47.070313 2.921875 74.761719-1.605468 5.054687-.828126 10.25 1.324218 13.238281 5.484374 16.371094 22.769532 37.441406 42.816407 51.707031 53.980469 6.234375 4.882813 13.710938 7.324219 21.183594 7.324219 7.476562 0 14.949219-2.441406 21.183594-7.324219 14.265625-11.167969 35.339844-31.214843 51.707031-53.980469 2.988281-4.160156 8.183594-6.3125 13.234375-5.484374 19.929688 3.257812 38.960938 3.5625 51.410156 3.242187 4.140625-.105469 7.410156-3.546875 7.304688-7.6875-.105469-4.140625-3.574219-7.386719-7.691406-7.308594zm-235.671876-218.015625c4.144532 0 7.5-3.359375 7.5-7.5 0-5.796875 4.71875-10.515625 10.515626-10.515625 5.796874 0 10.511718 4.71875 10.511718 10.515625 0 4.140625 3.359375 7.5 7.5 7.5s7.5-3.359375 7.5-7.5c0-14.070312-11.445312-25.511718-25.511718-25.511718-14.070313 0-25.515626 11.441406-25.515626 25.511718 0 4.140625 3.359376 7.5 7.5 7.5zm0 0"/></svg>