<?xml version="1.0" encoding="UTF-8" standalone="no"?>
<!-- Created with Inkscape (http://www.inkscape.org/) -->

<svg
   xmlns:dc="http://purl.org/dc/elements/1.1/"
   xmlns:cc="http://creativecommons.org/ns#"
   xmlns:rdf="http://www.w3.org/1999/02/22-rdf-syntax-ns#"
   xmlns:svg="http://www.w3.org/2000/svg"
   xmlns="http://www.w3.org/2000/svg"
   xmlns:sodipodi="http://sodipodi.sourceforge.net/DTD/sodipodi-0.dtd"
   xmlns:inkscape="http://www.inkscape.org/namespaces/inkscape"
   width="57.450684mm"
   height="100.45407mm"
   viewBox="0 0 57.450684 100.45407"
   version="1.1"
   id="svg6544"
   inkscape:version="0.92.3 (2405546, 2018-03-11)"
   sodipodi:docname="lotus.svg">
  <defs
     id="defs6538" />
  <sodipodi:namedview
     id="base"
     pagecolor="#ffffff"
     bordercolor="#666666"
     borderopacity="1.0"
     inkscape:pageopacity="0.0"
     inkscape:pageshadow="2"
     inkscape:zoom="1.979899"
     inkscape:cx="91.498261"
     inkscape:cy="119.96063"
     inkscape:document-units="mm"
     inkscape:current-layer="layer1"
     showgrid="false"
     inkscape:window-width="1920"
     inkscape:window-height="1017"
     inkscape:window-x="-8"
     inkscape:window-y="-8"
     inkscape:window-maximized="1"
     fit-margin-top="0"
     fit-margin-left="0"
     fit-margin-right="0"
     fit-margin-bottom="0" />
  <metadata
     id="metadata6541">
    <rdf:RDF>
      <cc:Work
         rdf:about="">
        <dc:format>image/svg+xml</dc:format>
        <dc:type
           rdf:resource="http://purl.org/dc/dcmitype/StillImage" />
        <dc:title></dc:title>
      </cc:Work>
    </rdf:RDF>
  </metadata>
  <g
     inkscape:label="Layer 1"
     inkscape:groupmode="layer"
     id="layer1"
     transform="translate(-72.572278,-80.13013)">
    <g
       id="g7157"
       transform="translate(0,-1.0583331)">
      <g
         inkscape:export-ydpi="500"
         inkscape:export-xdpi="500"
         transform="matrix(0.9575242,0,0,0.9575242,70.656845,121.21768)"
         data-name="Color copy"
         id="Color_copy">
        <g
           id="g6347">
          <path
             id="path6331"
             style="fill:#79bd9a"
             d="m 32,61 v 0 L 30.615,57.952 A 48.174,48.174 0 0 0 20.823,43.823 L 15,38 h 34 l -4.4,4.061 A 48.188,48.188 0 0 0 32,61 Z"
             inkscape:connector-curvature="0" />
          <ellipse
             id="ellipse6333"
             style="fill:#a8dba8"
             ry="9"
             rx="15"
             cy="38"
             cx="18" />
          <path
             id="path6335"
             style="fill:#a8dba8"
             d="M 46,29 A 16.644,16.644 0 0 0 40.923,29.8 21.418,21.418 0 0 1 32,39 C 31.789,38.885 31.587,38.757 31.381,38.635 A 16.979,16.979 0 0 0 61,38 17.216,17.216 0 0 0 46,29 Z"
             inkscape:connector-curvature="0" />
          <path
             id="path6337"
             style="fill:#a8dba8"
             d="M 48.461,6 A 17.742,17.742 0 0 0 38.723,8.707 19.762,19.762 0 0 1 40.464,30.67 16.789,16.789 0 0 0 48.755,23.49 17.216,17.216 0 0 0 48.461,6 Z"
             inkscape:connector-curvature="0" />
          <path
             id="path6339"
             style="fill:#a8dba8"
             d="M 21,21 A 19.947,19.947 0 0 1 25.589,8.305 17.788,17.788 0 0 0 16.539,6 17.216,17.216 0 0 0 16.245,23.49 16.727,16.727 0 0 0 23.21,30.064 19.72,19.72 0 0 1 21,21 Z"
             inkscape:connector-curvature="0" />
          <path
             id="path6341"
             style="fill:#cff09e"
             d="M 38,34 A 20.611,20.611 0 0 1 27,16 19.96,19.96 0 0 1 31.689,3.183 20.575,20.575 0 0 0 21,21 20.611,20.611 0 0 0 32,39 21.873,21.873 0 0 0 38.311,33.817 C 38.206,33.876 38.106,33.942 38,34 Z"
             inkscape:connector-curvature="0" />
          <path
             id="path6343"
             style="fill:#cff09e"
             d="M 42.209,15.462 A 19.7,19.7 0 0 1 43,21 20.478,20.478 0 0 1 33.326,38.208 20.112,20.112 0 0 0 48.906,36.349 20.61,20.61 0 0 0 58.994,17.823 20.98,20.98 0 0 0 42.209,15.462 Z"
             inkscape:connector-curvature="0" />
          <path
             id="path6345"
             style="fill:#cff09e"
             d="M 21,21 A 19.7,19.7 0 0 1 21.791,15.462 20.98,20.98 0 0 0 5.006,17.823 20.61,20.61 0 0 0 15.094,36.349 20.112,20.112 0 0 0 30.674,38.208 20.478,20.478 0 0 1 21,21 Z"
             inkscape:connector-curvature="0" />
        </g>
      </g>
      <g
         inkscape:export-ydpi="500"
         inkscape:export-xdpi="500"
         transform="matrix(0.9575242,0,0,0.9575242,70.656845,121.21768)"
         data-name="Stroke Closed copy"
         id="Stroke_Closed_copy">
        <path
           id="path6350"
           style="fill:#3b8686"
           d="m 61.873,37.513 a 18.84,18.84 0 0 0 -5.849,-6.4 22.342,22.342 0 0 0 3.97,-13.313 1,1 0 0 0 -0.48,-0.832 22.8,22.8 0 0 0 -7.56,-2.919 A 18.834,18.834 0 0 0 49.319,5.489 1,1 0 0 0 48.476,5 18.965,18.965 0 0 0 38.952,7.42 22.719,22.719 0 0 0 32.48,2.12 1,1 0 0 0 31.52,2.12 22.728,22.728 0 0 0 25.361,7.054 18.861,18.861 0 0 0 16.524,5 a 1,1 0 0 0 -0.843,0.487 18.85,18.85 0 0 0 -2.628,8.393 22.742,22.742 0 0 0 -8.567,3.086 1,1 0 0 0 -0.48,0.832 22.342,22.342 0 0 0 3.97,13.309 18.84,18.84 0 0 0 -5.849,6.4 1,1 0 0 0 0,0.974 A 18.292,18.292 0 0 0 18,48 a 17.561,17.561 0 0 0 4.694,-0.647 47.131,47.131 0 0 1 7.011,11.013 l 1.385,3.048 A 1,1 0 0 0 32,62 h 0.039 a 1,1 0 0 0 0.9,-0.657 47.05,47.05 0 0 1 8.1,-14.062 A 17.54,17.54 0 0 0 46,48 a 18.292,18.292 0 0 0 15.873,-9.513 1,1 0 0 0 0,-0.974 z M 48.406,35.482 a 18.918,18.918 0 0 1 -12.681,2.229 q 0.667,-0.529 1.29,-1.1 A 22.43,22.43 0 0 0 49.9,25.447 1.0004169,1.0004169 0 0 0 48.11,24.553 20.4,20.4 0 0 1 40.196,32.973 20.973,20.973 0 0 0 44,21 20.52,20.52 0 0 0 43.418,16.2 20.052,20.052 0 0 1 58,18.4 19.654,19.654 0 0 1 48.406,35.482 Z M 47.883,7 a 16.829,16.829 0 0 1 2.052,6.759 21.245,21.245 0 0 0 -7.083,0.5 A 21.419,21.419 0 0 0 40.182,9.015 16.68,16.68 0 0 1 47.883,7 Z M 32,4.148 A 19.658,19.658 0 0 1 42,21 19.567,19.567 0 0 1 33,37.226 V 27 a 1,1 0 0 0 -2,0 V 37.226 A 19.567,19.567 0 0 1 22,21 19.658,19.658 0 0 1 32,4.148 Z M 17.117,7 a 16.813,16.813 0 0 1 6.967,1.645 21.457,21.457 0 0 0 -2.936,5.61 A 21.154,21.154 0 0 0 15.067,13.688 16.854,16.854 0 0 1 17.117,7 Z m 3.465,9.2 A 20.52,20.52 0 0 0 20,21 20.959,20.959 0 0 0 23.767,32.908 20.273,20.273 0 0 1 16.716,25.916 l -0.859,-1.431 a 1,1 0 1 0 -1.714,1.03 L 15,26.945 a 22.312,22.312 0 0 0 11.948,9.633 c 0.425,0.394 0.869,0.77 1.327,1.134 A 18.92,18.92 0 0 1 15.593,35.482 19.654,19.654 0 0 1 6,18.4 20.059,20.059 0 0 1 20.582,16.2 Z M 4.155,38 a 16.808,16.808 0 0 1 5.057,-5.28 20.64,20.64 0 0 0 15.794,7.28 21.974,21.974 0 0 0 5.5,-0.718 c 0.108,0.066 0.219,0.128 0.327,0.193 A 16.152,16.152 0 0 1 18,46 16.268,16.268 0 0 1 4.155,38 Z M 31.932,58.432 31.525,57.538 A 49.061,49.061 0 0 0 24.725,46.659 18.463,18.463 0 0 0 32,41.234 18.478,18.478 0 0 0 39.038,46.557 48.947,48.947 0 0 0 31.932,58.432 Z M 46,46 A 16.152,16.152 0 0 1 33.168,39.471 c 0.108,-0.065 0.219,-0.127 0.327,-0.193 a 21.968,21.968 0 0 0 5.5,0.718 A 20.64,20.64 0 0 0 54.788,32.72 16.808,16.808 0 0 1 59.845,38 16.268,16.268 0 0 1 46,46 Z"
           inkscape:connector-curvature="0" />
      </g>
    </g>
  </g>
</svg>
