<?xml version="1.0" encoding="UTF-8" standalone="no"?>
<!-- Created with Inkscape (http://www.inkscape.org/) -->

<svg
   xmlns:dc="http://purl.org/dc/elements/1.1/"
   xmlns:cc="http://creativecommons.org/ns#"
   xmlns:rdf="http://www.w3.org/1999/02/22-rdf-syntax-ns#"
   xmlns:svg="http://www.w3.org/2000/svg"
   xmlns="http://www.w3.org/2000/svg"
   xmlns:sodipodi="http://sodipodi.sourceforge.net/DTD/sodipodi-0.dtd"
   xmlns:inkscape="http://www.inkscape.org/namespaces/inkscape"
   width="57.450684mm"
   height="100.45407mm"
   viewBox="0 0 57.450684 100.45407"
   version="1.1"
   id="svg6544"
   inkscape:version="0.92.3 (2405546, 2018-03-11)"
   sodipodi:docname="pose4_sm.svg">
  <defs
     id="defs6538" />
  <sodipodi:namedview
     id="base"
     pagecolor="#ffffff"
     bordercolor="#666666"
     borderopacity="1.0"
     inkscape:pageopacity="0.0"
     inkscape:pageshadow="2"
     inkscape:zoom="0.98994949"
     inkscape:cx="-57.543211"
     inkscape:cy="61.80942"
     inkscape:document-units="mm"
     inkscape:current-layer="layer1"
     showgrid="false"
     inkscape:window-width="1920"
     inkscape:window-height="1017"
     inkscape:window-x="1912"
     inkscape:window-y="-8"
     inkscape:window-maximized="1"
     fit-margin-top="0"
     fit-margin-left="0"
     fit-margin-right="0"
     fit-margin-bottom="0" />
  <metadata
     id="metadata6541">
    <rdf:RDF>
      <cc:Work
         rdf:about="">
        <dc:format>image/svg+xml</dc:format>
        <dc:type
           rdf:resource="http://purl.org/dc/dcmitype/StillImage" />
        <dc:title></dc:title>
      </cc:Work>
    </rdf:RDF>
  </metadata>
  <g
     inkscape:label="Layer 1"
     inkscape:groupmode="layer"
     id="layer1"
     transform="translate(-72.572278,-80.13013)">
    <path
       style="fill:#ff9e2b;fill-opacity:1;stroke-width:0.29308388"
       d="m 102.7512,135.77274 c -0.29707,-1.1542 -0.42017,-3.56787 -0.43354,-8.49945 -0.0165,-6.11321 -0.0802,-7.01245 -0.56684,-7.99943 -1.2728,-2.58175 -3.915251,-2.58741 -7.649715,-0.0163 l -1.46542,1.0089 1.444169,-1.35384 c 1.636712,-1.53434 3.719392,-2.68937 5.009698,-2.77832 2.114898,-0.14574 2.572508,-10e-4 3.674888,1.15712 l 1.09892,1.15522 0.19932,-1.98457 c 0.35194,-3.50445 -0.49898,-5.32873 -3.56794,-7.64937 -2.402458,-1.81667 -2.845783,-2.51508 -2.402915,-3.78547 0.173991,-0.49911 0.450055,-0.90747 0.613479,-0.90747 0.561223,0 5.361076,5.18892 6.383646,6.90107 1.49169,2.49762 1.5277,4.46235 0.19321,10.53745 -1.21667,5.53871 -1.62554,8.23988 -1.90762,12.6026 l -0.20846,3.22392 z m -1.87375,-10.39157 c -0.26598,-0.40594 -1.042206,-1.03652 -1.724931,-1.40129 -1.138689,-0.60838 -1.598729,-0.66041 -5.564309,-0.62939 l -4.322985,0.0338 v -1.09603 c 0,-3.30362 2.900708,-7.00106 7.180558,-9.15284 2.295486,-1.15411 2.164977,-0.7633 -0.646188,1.93493 -3.386045,3.25001 -4.748464,5.02048 -4.248272,5.52067 0.18127,0.18128 1.554515,0.42658 3.051645,0.54513 1.497133,0.11857 2.985839,0.31448 3.308227,0.43539 1.252007,0.46955 2.585975,1.73828 3.136695,2.98329 0.65177,1.47342 0.55643,1.93565 -0.17044,0.82632 z m -4.053816,-23.5329 c -3.825267,-5.016968 -4.127956,-9.875539 -0.952765,-15.293173 0.922832,-1.574577 5.043861,-7.008921 4.788521,-6.314548 -0.0607,0.165164 -0.921,1.8797 -1.91169,3.810093 -2.33131,4.542628 -3.034631,6.843333 -3.034631,9.926937 0,2.750183 0.506299,4.970905 1.708999,7.496031 0.462841,0.97174 0.756367,1.76681 0.652285,1.76681 -0.104089,0 -0.666907,-0.62647 -1.250719,-1.39215 z m 8.694106,0 c 1.95505,-3.91676 2.26731,-7.97233 0.91958,-11.943158 -0.70439,-2.075346 -3.24022,-7.226538 -4.53924,-9.220817 -1.11326,-1.709102 0.42349,-0.04052 2.49582,2.709979 4.83984,6.423647 5.784,10.7205 3.45813,15.737858 -0.75687,1.632688 -2.4432,4.082718 -2.82145,4.099208 -0.11418,0.005 0.10506,-0.61739 0.48716,-1.38307 z m -5.950491,-2.637757 c -0.333854,-0.282099 -0.941967,-1.191482 -1.351345,-2.020883 -1.473338,-2.984901 -0.736802,-5.732131 1.757492,-6.555312 2.824724,-0.932249 4.989524,1.203904 4.384464,4.326487 l -0.21297,1.099062 -0.38192,-1.269393 c -0.52021,-1.728983 -1.18538,-2.394162 -2.39419,-2.394162 -1.520035,0 -2.432085,1.14327 -2.430689,3.046903 8.45e-4,1.594082 0.772792,3.266451 1.665119,3.608871 0.27154,0.104121 0.97995,-0.07978 1.5868,-0.412273 1.21487,-0.665446 1.29861,-0.156888 0.10318,0.626388 -0.91736,0.601073 -1.97417,0.579479 -2.725907,-0.05559 z"
       id="path6090-9"
       inkscape:connector-curvature="0"
       sodipodi:nodetypes="scccccccccccscsscscsccscccccsccsccsscsscsccsccccccccscccccc"
       inkscape:export-xdpi="500"
       inkscape:export-ydpi="500" />
  </g>
</svg>
