<?xml version="1.0" encoding="UTF-8" standalone="no"?>
<!-- Created with Inkscape (http://www.inkscape.org/) -->

<svg
   xmlns:dc="http://purl.org/dc/elements/1.1/"
   xmlns:cc="http://creativecommons.org/ns#"
   xmlns:rdf="http://www.w3.org/1999/02/22-rdf-syntax-ns#"
   xmlns:svg="http://www.w3.org/2000/svg"
   xmlns="http://www.w3.org/2000/svg"
   xmlns:sodipodi="http://sodipodi.sourceforge.net/DTD/sodipodi-0.dtd"
   xmlns:inkscape="http://www.inkscape.org/namespaces/inkscape"
   width="93.290627mm"
   height="66.139458mm"
   viewBox="0 0 93.290626 66.139458"
   version="1.1"
   id="svg8291"
   inkscape:version="0.92.3 (2405546, 2018-03-11)"
   sodipodi:docname="pose2.svg">
  <defs
     id="defs8285" />
  <sodipodi:namedview
     id="base"
     pagecolor="#ffffff"
     bordercolor="#666666"
     borderopacity="1.0"
     inkscape:pageopacity="0.0"
     inkscape:pageshadow="2"
     inkscape:zoom="0.35"
     inkscape:cx="-379.6195"
     inkscape:cy="128.07006"
     inkscape:document-units="mm"
     inkscape:current-layer="layer1"
     showgrid="false"
     fit-margin-top="0"
     fit-margin-left="0"
     fit-margin-right="0"
     fit-margin-bottom="0"
     inkscape:window-width="1920"
     inkscape:window-height="1017"
     inkscape:window-x="-8"
     inkscape:window-y="-8"
     inkscape:window-maximized="1" />
  <metadata
     id="metadata8288">
    <rdf:RDF>
      <cc:Work
         rdf:about="">
        <dc:format>image/svg+xml</dc:format>
        <dc:type
           rdf:resource="http://purl.org/dc/dcmitype/StillImage" />
        <dc:title></dc:title>
      </cc:Work>
    </rdf:RDF>
  </metadata>
  <g
     inkscape:label="Layer 1"
     inkscape:groupmode="layer"
     id="layer1"
     transform="translate(-77.384445,-116.57898)">
    <path
       style="fill:#ff9e2b;fill-opacity:1;stroke-width:0.35277781"
       d="m 105.99006,173.40491 c -2.26029,-3.32842 -3.65159,-6.31096 -4.86283,-10.42441 -1.346569,-4.57311 -2.710119,-6.93964 -6.033539,-10.47167 l -2.52485,-2.6833 -1.12563,1.05833 c -1.92943,1.81406 -5.20346,7.14999 -8.4419,13.75832 -1.7115,3.4925 -3.40904,7.10348 -3.7723,8.02439 -0.36327,0.9209 -0.77868,1.67496 -0.92315,1.67569 -0.709054,0.004 0.93482,-5.76885 3.51586,-12.3459 4.33517,-11.04697 9.70262,-19.40278 12.4636,-19.40278 0.30797,0 1.42205,0.64398 2.47574,1.43107 5.939309,4.43658 10.527209,4.78534 12.675189,0.96353 0.42445,-0.75521 0.9457,-1.31512 1.15832,-1.24425 0.86643,0.28881 1.74626,2.06959 2.74997,5.56595 1.22903,4.28127 2.84639,7.8816 4.89737,10.90181 1.53003,2.25304 1.56042,2.47343 0.22002,1.59517 -1.20411,-0.78895 -3.30678,-3.94952 -6.03664,-9.07376 -2.13596,-4.00943 -2.45886,-4.44697 -2.95779,-4.00801 -1.02429,0.90113 -2.64409,0.95974 -6.39546,0.23141 -3.527459,-0.68485 -5.277119,-0.87767 -5.277119,-0.58155 0,1.14829 2.477599,7.847 5.103859,13.79938 3.29751,7.47369 4.97424,12.0974 4.69299,12.94114 -0.0797,0.23908 -0.80045,-0.53066 -1.60171,-1.71056 z m -3.60904,-30.34985 c -0.48506,-0.0814 -1.43756,-0.33286 -2.11666,-0.55879 l -1.234719,-0.41078 2.270249,-0.22743 c 1.8794,-0.18827 2.41257,-0.39288 3.0969,-1.18846 1.08453,-1.26084 0.90471,-2.17187 -1.547,-7.83807 -1.82172,-4.21016 -3.184799,-8.45338 -2.82964,-8.80854 0.0908,-0.0908 1.10772,1.62955 2.25994,3.82294 1.15219,2.19336 3.00433,5.35425 4.11584,7.0242 1.11151,1.66994 2.24068,3.76642 2.50927,4.65884 l 0.48832,1.62259 -1.13552,0.70179 c -0.62455,0.38599 -1.84517,0.86532 -2.7125,1.06518 -1.63701,0.37721 -1.71126,0.38041 -3.16448,0.13653 z m 9.9443,-0.82798 c -0.77951,-0.72622 -0.93929,-1.61942 -0.54973,-3.07306 0.34358,-1.282 0.68939,-0.91069 0.54659,0.58685 -0.11179,1.17213 0.006,1.4711 0.78287,1.97983 1.71338,1.12266 5.21236,-0.10741 6.05721,-2.12942 0.52276,-1.25115 0.3959,-2.057 -0.48536,-3.0831 -0.6152,-0.7163 -2.87454,-0.83497 -4.06005,-0.21325 l -0.77054,0.40411 0.70555,-0.80557 c 2.66328,-3.04084 6.87917,-1.54164 6.87917,2.44629 0,3.06322 -2.04232,4.60662 -6.09577,4.60662 -1.76448,0 -2.40117,-0.15215 -3.00994,-0.7193 z"
       id="path6090-8"
       inkscape:connector-curvature="0"
       sodipodi:nodetypes="ccccccccsssccccccccsccccsccscsccscccccccccccccssc"
       inkscape:export-xdpi="500"
       inkscape:export-ydpi="500" />
  </g>
</svg>
