<?xml version="1.0" encoding="UTF-8" standalone="no"?>
<!-- Created with Inkscape (http://www.inkscape.org/) -->

<svg
   xmlns:dc="http://purl.org/dc/elements/1.1/"
   xmlns:cc="http://creativecommons.org/ns#"
   xmlns:rdf="http://www.w3.org/1999/02/22-rdf-syntax-ns#"
   xmlns:svg="http://www.w3.org/2000/svg"
   xmlns="http://www.w3.org/2000/svg"
   xmlns:sodipodi="http://sodipodi.sourceforge.net/DTD/sodipodi-0.dtd"
   xmlns:inkscape="http://www.inkscape.org/namespaces/inkscape"
   width="56.000011mm"
   height="67.333878mm"
   viewBox="0 0 56.000011 67.333878"
   version="1.1"
   id="svg8857"
   inkscape:version="0.92.3 (2405546, 2018-03-11)"
   sodipodi:docname="pose6.svg">
  <defs
     id="defs8851" />
  <sodipodi:namedview
     id="base"
     pagecolor="#ffffff"
     bordercolor="#666666"
     borderopacity="1.0"
     inkscape:pageopacity="0.0"
     inkscape:pageshadow="2"
     inkscape:zoom="1.4"
     inkscape:cx="-48.196582"
     inkscape:cy="-48.358588"
     inkscape:document-units="mm"
     inkscape:current-layer="layer1"
     showgrid="false"
     fit-margin-top="0"
     fit-margin-left="0"
     fit-margin-right="0"
     fit-margin-bottom="0"
     inkscape:window-width="1920"
     inkscape:window-height="1017"
     inkscape:window-x="1912"
     inkscape:window-y="-8"
     inkscape:window-maximized="1" />
  <metadata
     id="metadata8854">
    <rdf:RDF>
      <cc:Work
         rdf:about="">
        <dc:format>image/svg+xml</dc:format>
        <dc:type
           rdf:resource="http://purl.org/dc/dcmitype/StillImage" />
        <dc:title></dc:title>
      </cc:Work>
    </rdf:RDF>
  </metadata>
  <g
     inkscape:label="Layer 1"
     inkscape:groupmode="layer"
     id="layer1"
     transform="translate(-98.665879,-101.16018)">
    <path
       style="fill:#ff9e2b;fill-opacity:1;stroke-width:0.14424795"
       d="m 106.39465,156.96109 c -0.27883,-0.4301 -0.45687,-2.70413 -0.43019,-5.49461 0.0311,-3.24083 -0.0254,-3.60628 -0.65973,-4.27119 -0.82138,-0.86105 -1.74038,-0.67239 -4.08163,0.83797 -0.19837,0.12808 -0.0362,-0.0669 0.36061,-0.43293 1.0251,-0.94599 2.23777,-1.52997 3.17705,-1.52997 0.83068,0 1.34664,0.29973 1.80036,1.04583 l 0.25681,0.42227 0.1901,-0.55374 c 0.4568,-1.33093 0.0329,-3.33361 -0.8248,-3.8955 -0.18923,-0.12397 -0.34414,-0.3154 -0.34414,-0.42529 0,-0.10996 -0.1168,-0.19972 -0.25965,-0.19972 -0.47083,0 -0.60621,-0.30974 -0.59571,-1.36312 0.006,-0.55934 0.0603,-1.14533 0.12153,-1.30223 0.0914,-0.23387 0.16754,-0.13539 0.42261,0.54633 0.17113,0.4574 0.31115,0.96062 0.31115,1.11829 0,0.38232 0.58668,0.59221 1.50532,0.53856 0.67192,-0.0393 0.73409,-0.0736 0.77512,-0.42841 0.0521,-0.45011 -0.25531,-1.07604 -1.2625,-2.57135 -0.81282,-1.2067 -0.90494,-1.5164 -0.4049,-1.36116 1.17114,0.36361 2.38192,2.12419 2.52181,3.66693 0.1063,1.17333 -0.0621,1.29959 -1.73875,1.30358 l -1.32399,0.002 0.57701,0.26629 c 1.67563,0.77338 1.89665,2.05573 1.03456,6.00216 -0.66577,3.04763 -0.84416,4.25559 -0.94803,6.41904 -0.0475,0.99169 -0.12868,1.73818 -0.18005,1.65886 z m -1.26871,-6.15899 c -0.75073,-0.94826 -2.44945,-1.26328 -5.04165,-0.93486 l -0.922456,0.11681 0.07618,-0.84092 c 0.161738,-1.78508 1.400556,-3.35911 3.525086,-4.47927 0.63952,-0.33717 1.20691,-0.61303 1.26093,-0.61303 0.0541,0 -0.71328,0.80384 -1.70509,1.78633 -1.64196,1.62654 -2.1787,2.37189 -1.9051,2.64549 0.05,0.0501 0.73303,0.13554 1.51773,0.1899 1.70704,0.11833 2.59722,0.48241 3.11476,1.27381 0.30229,0.46225 0.62311,1.33035 0.48369,1.30882 -0.0283,-0.005 -0.21021,-0.20843 -0.40417,-0.45319 z m -3.54223,-8.3159 c -0.80804,-0.14604 -0.93761,-0.25913 -0.93761,-0.81848 0,-1.50958 1.62553,-3.87172 2.75044,-3.99683 0.54823,-0.0611 0.3814,0.35254 -0.82414,2.04272 -0.64785,0.90831 -1.05699,1.61934 -1.0313,1.79222 0.0589,0.39626 0.70068,0.57574 1.6394,0.45846 0.67817,-0.0847 0.78342,-0.14011 0.7841,-0.41206 10e-4,-0.5277 0.27955,-1.35452 0.57501,-1.70905 l 0.28008,-0.3361 0.005,1.39099 c 0.005,1.19305 -0.0311,1.40528 -0.24764,1.49148 -0.3812,0.15168 -2.33853,0.21489 -2.99314,0.0967 z m 2.38543,-5.8234 c -1.11998,-0.76206 -1.73987,-3.06195 -1.06921,-3.96717 0.71892,-0.9704 1.86712,-1.31345 2.79325,-0.83451 0.64325,0.33264 0.86736,0.76167 0.86488,1.65571 -0.002,1.02524 -0.21111,1.39733 -0.33803,0.60384 -0.13828,-0.86509 -0.70715,-1.46536 -1.3886,-1.46536 -0.44813,0 -0.63166,0.0938 -0.99693,0.50988 -0.3588,0.40864 -0.44768,0.63868 -0.44768,1.1586 0,1.08892 0.65294,2.2262 1.27811,2.2262 0.14772,0 0.50461,-0.1604 0.79336,-0.35627 0.28873,-0.19591 0.52499,-0.29907 0.52499,-0.2292 0,0.15122 -0.83452,0.87398 -1.009,0.87398 -0.0669,0 -0.21132,0.0346 -0.32137,0.0769 -0.10995,0.0422 -0.41769,-0.0714 -0.68377,-0.25244 z"
       id="path6090-88"
       inkscape:connector-curvature="0"
       sodipodi:nodetypes="cccccsccccsscccsccscscccsccccccccsscsccccscsccccccscccccccscsscsscc" />
  </g>
</svg>
