<?xml version="1.0" encoding="UTF-8" standalone="no"?>
<!-- Created with Inkscape (http://www.inkscape.org/) -->

<svg
   xmlns:dc="http://purl.org/dc/elements/1.1/"
   xmlns:cc="http://creativecommons.org/ns#"
   xmlns:rdf="http://www.w3.org/1999/02/22-rdf-syntax-ns#"
   xmlns:svg="http://www.w3.org/2000/svg"
   xmlns="http://www.w3.org/2000/svg"
   xmlns:sodipodi="http://sodipodi.sourceforge.net/DTD/sodipodi-0.dtd"
   xmlns:inkscape="http://www.inkscape.org/namespaces/inkscape"
   width="423.33331mm"
   height="230.81532mm"
   viewBox="0 0 423.33331 230.81532"
   version="1.1"
   id="svg10068"
   inkscape:export-filename="C:\R_Drive\Personal_Files\YogaGarden\yogagardenoregon\static\images\illustrations\yg_background.png"
   inkscape:export-xdpi="500"
   inkscape:export-ydpi="500"
   inkscape:version="0.92.3 (2405546, 2018-03-11)"
   sodipodi:docname="background_yg.svg">
  <defs
     id="defs10062" />
  <sodipodi:namedview
     id="base"
     pagecolor="#ffffff"
     bordercolor="#666666"
     borderopacity="1.0"
     inkscape:pageopacity="0.0"
     inkscape:pageshadow="2"
     inkscape:zoom="0.49497475"
     inkscape:cx="293.20512"
     inkscape:cy="143.50824"
     inkscape:document-units="mm"
     inkscape:current-layer="layer1"
     showgrid="false"
     fit-margin-top="0"
     fit-margin-left="0"
     fit-margin-right="0"
     fit-margin-bottom="0"
     inkscape:window-width="1920"
     inkscape:window-height="1017"
     inkscape:window-x="1912"
     inkscape:window-y="-8"
     inkscape:window-maximized="1" />
  <metadata
     id="metadata10065">
    <rdf:RDF>
      <cc:Work
         rdf:about="">
        <dc:format>image/svg+xml</dc:format>
        <dc:type
           rdf:resource="http://purl.org/dc/dcmitype/StillImage" />
        <dc:title></dc:title>
      </cc:Work>
    </rdf:RDF>
  </metadata>
  <g
     inkscape:label="Layer 1"
     inkscape:groupmode="layer"
     id="layer1"
     transform="translate(145.89881,-152.50901)">
    <path
       id="path5995"
       d="m 17.91743,189.51042 c -11.92847,0.12568 -18.37293,8.6749 -10.92464,30.00984 19.08651,54.6735 2.52571,49.75278 -38.10318,35.97301 -40.629161,-13.7795 -54.506821,-19.34024 -67.524321,-3.89784 -13.017229,15.44241 4.28096,20.08003 14.93309,32.64853 10.65239,12.56902 -0.0722,16.6645 -18.099089,20.50678 -18.02686,3.84255 -33.79708,4.67043 -36.51726,20.81319 -2.72018,16.14328 33.40629,12.936 -4.77573,35.40257 a 55.72125,55.72125 0 0 0 -2.80511,1.76318 v 20.59464 h 316.57025 a 931.07854,931.07854 0 0 0 -61.9961,-12.68439 c -113.54965,-19.22859 -203.256631,-4.81224 -227.17681,0.28628 -19.58023,4.17354 -24.37421,5.61525 -25.49314,6.00789 3.91716,-1.46235 68.757799,-25.146 166.55177,-27.75082 73.94628,-1.96956 190.40687,21.46882 247.40024,34.14104 h 7.47712 v -72.40958 c -2.15106,-5.43242 -4.25873,-10.34706 -6.24152,-14.36767 -13.40485,-27.18275 -24.32738,-12.76428 -25.52859,-4.57464 -1.20147,8.18991 -12.31635,19.15636 -41.37633,-37.26391 -29.05998,-56.42081 -55.59213,-60.17525 -68.56333,-24.1128 -12.97094,36.06271 -36.27544,23.52886 -60.98646,-7.2689 C 59.2435,204.01541 33.74983,189.34321 17.91743,189.51042 Z"
       inkscape:connector-curvature="0"
       style="fill:#36197f;stroke-width:0.26458332"
       inkscape:export-xdpi="500"
       inkscape:export-ydpi="500" />
    <path
       style="fill:#ff9e2b;fill-opacity:1;stroke-width:0.35277781"
       d="m 234.54886,362.47729 c -4.83614,-0.70457 -8.53749,-2.31322 -10.61595,-4.61385 -1.51547,-1.67744 -1.5547,-2.75977 -0.14308,-3.94757 1.00168,-0.84285 2.43595,-1.35863 8.04423,-2.89272 3.09938,-0.84781 3.27847,-1.33155 2.05773,-5.55796 -0.9465,-3.27696 -1.19585,-5.99378 -0.63179,-6.88385 0.21122,-0.3333 0.37373,-0.0912 0.54242,0.80797 0.13247,0.70611 0.94683,2.73434 1.8097,4.50721 1.60731,3.30239 1.94774,5.2307 1.24824,7.0705 -0.48157,1.26664 -1.73439,1.91568 -5.86479,3.03837 -2.06218,0.56053 -3.93308,1.20279 -4.15754,1.42726 -0.30898,0.30897 -0.23777,0.72626 0.2931,1.71772 1.45611,2.71944 6.88317,4.45535 15.3415,4.90717 3.7844,0.20214 4.43647,0.3063 3.175,0.50712 -2.14003,0.34071 -8.50437,0.2906 -11.09877,-0.0874 z m 8.62933,-2.08425 c -3.15469,-0.37724 -6.52539,-1.55637 -8.73125,-3.05432 -1.01865,-0.69174 -1.85209,-1.37869 -1.85209,-1.52652 0,-0.14786 0.9291,0.10646 2.06466,0.56514 3.53822,1.42915 6.67864,2.0253 10.81173,2.05243 3.35999,0.022 4.07722,-0.0794 5.34652,-0.75606 1.82673,-0.97388 3.09405,-2.48813 2.59034,-3.09505 -0.22236,-0.26796 -1.85295,-0.503 -4.32333,-0.6232 -2.18147,-0.10614 -4.48706,-0.38358 -5.12355,-0.6165 -2.5805,-0.94441 -3.02993,-4.75079 -1.17594,-9.95957 0.60415,-1.69738 1.09846,-3.57206 1.09846,-4.16595 0,-0.70629 0.13649,-0.99547 0.39458,-0.83596 0.38992,0.24099 0.33046,2.25544 -0.25164,8.52436 -0.36271,3.906 0.10069,4.21425 7.02571,4.6735 4.89751,0.3248 5.88413,0.72127 5.88413,2.36453 0,4.49806 -6.1166,7.36697 -13.75833,6.45317 z m -18.57494,-9.55747 c -1.99888,-0.46536 -3.29729,-1.81905 -3.29729,-3.4377 v -1.26452 l 1.26494,1.30232 c 0.76912,0.79183 1.74483,1.39234 2.48926,1.53199 1.6483,0.30922 4.56282,10e-4 5.22993,-0.55212 0.77908,-0.64657 0.67357,-2.63848 -0.34018,-6.42244 -1.20285,-4.48981 -1.1714,-6.05297 0.14836,-7.37273 0.66356,-0.66356 1.38675,-1.02738 2.02848,-1.02047 0.92629,0.01 0.94705,0.0395 0.29172,0.41536 -1.92296,1.10281 -2.05919,3.24644 -0.52341,8.23569 1.83232,5.95257 1.76105,7.16543 -0.47513,8.08606 -1.57031,0.64651 -5.07896,0.90311 -6.81668,0.49856 z m 25.45411,-0.48842 c -0.19403,-0.0658 -0.92028,-0.214 -1.61389,-0.32932 -3.00499,-0.49961 -3.37861,-2.14204 -1.87749,-8.25347 1.13687,-4.62847 1.01317,-6.1616 -0.61454,-7.61608 l -1.15088,-1.02839 1.21729,0.23377 c 0.68978,0.13246 1.63769,0.69517 2.18742,1.29853 1.19984,1.31688 1.2619,3.0534 0.26459,7.40364 -0.3781,1.64923 -0.69151,3.33821 -0.6965,3.75329 -0.0374,3.1142 5.95918,3.80086 8.44712,0.96726 0.576,-0.65602 1.13149,-1.19277 1.23443,-1.19277 0.55855,0 0.0691,2.20286 -0.68985,3.10481 -1.14792,1.36422 -4.8655,2.28353 -6.7077,1.65873 z M 236.36731,330.4268 c -2.25341,-1.97852 -3.38463,-6.51217 -2.19763,-8.80757 1.288,-2.49072 4.27209,-3.71398 6.64324,-2.72326 1.75867,0.73483 2.46147,1.96773 2.44068,4.28165 -0.0239,2.65843 -0.44167,3.13199 -1.01834,1.1543 -1.09421,-3.75261 -4.98904,-4.66818 -6.31888,-1.48541 -0.86824,2.07798 -0.41912,4.65365 1.13311,6.49837 0.95747,1.13789 2.0779,1.35962 3.41786,0.6764 l 0.77056,-0.39289 -0.70677,0.73709 c -0.38874,0.4054 -1.19927,0.83559 -1.80119,0.95598 -0.89887,0.17977 -1.32098,0.0199 -2.36264,-0.89466 z"
       id="path6090-2"
       inkscape:connector-curvature="0"
       sodipodi:nodetypes="ccccccscccccccccscscccccccscccsscsccccssccccccsscccccccsccccccccsccccc"
       inkscape:export-xdpi="500"
       inkscape:export-ydpi="500" />
    <path
       style="fill:#ff9e2b;fill-opacity:1;stroke-width:0.35277781"
       d="m -68.084013,348.86892 c -2.26029,-3.32842 -3.6516,-6.31096 -4.86284,-10.42441 -1.34657,-4.57311 -2.71012,-6.93964 -6.03354,-10.47167 l -2.52485,-2.6833 -1.12563,1.05833 c -1.92943,1.81406 -5.20346,7.14999 -8.4419,13.75832 -1.7115,3.4925 -3.40904,7.10348 -3.7723,8.02439 -0.36327,0.9209 -0.77868,1.67496 -0.92315,1.67569 -0.70905,0.004 0.93482,-5.76885 3.51586,-12.3459 4.33517,-11.04697 9.70262,-19.40278 12.4636,-19.40278 0.30797,0 1.42205,0.64398 2.47574,1.43107 5.93932,4.43658 10.52722,4.78534 12.6752,0.96353 0.42445,-0.75521 0.94569,-1.31512 1.15831,-1.24425 0.86644,0.28881 1.74627,2.06959 2.74997,5.56595 1.22903,4.28127 2.84639,7.8816 4.897373,10.90181 1.53003,2.25304 1.56042,2.47343 0.22002,1.59517 -1.204113,-0.78895 -3.306783,-3.94952 -6.036643,-9.07376 -2.13595,-4.00943 -2.45885,-4.44697 -2.95779,-4.00801 -1.02428,0.90113 -2.64408,0.95974 -6.39546,0.23141 -3.52746,-0.68485 -5.27712,-0.87767 -5.27712,-0.58155 0,1.14829 2.4776,7.847 5.10386,13.79938 3.29751,7.47369 4.97425,12.0974 4.693,12.94114 -0.0797,0.23908 -0.80046,-0.53066 -1.60171,-1.71056 z m -3.60904,-30.34985 c -0.48507,-0.0814 -1.43757,-0.33286 -2.11667,-0.55879 l -1.23472,-0.41078 2.27025,-0.22743 c 1.8794,-0.18827 2.41257,-0.39288 3.0969,-1.18846 1.08453,-1.26084 0.90472,-2.17187 -1.547,-7.83807 -1.82171,-4.21016 -3.1848,-8.45338 -2.82964,-8.80854 0.0908,-0.0908 1.10773,1.62955 2.25994,3.82294 1.1522,2.19336 3.00433,5.35425 4.11585,7.0242 1.11151,1.66994 2.24068,3.76642 2.50926,4.65884 l 0.48833,1.62259 -1.13553,0.70179 c -0.62454,0.38599 -1.84517,0.86532 -2.7125,1.06518 -1.637,0.37721 -1.71125,0.38041 -3.16447,0.13653 z m 9.9443,-0.82798 c -0.77951,-0.72622 -0.93929,-1.61942 -0.54973,-3.07306 0.34357,-1.282 0.68939,-0.91069 0.54658,0.58685 -0.11178,1.17213 0.006,1.4711 0.78287,1.97983 1.71339,1.12266 5.212363,-0.10741 6.057213,-2.12942 0.52276,-1.25115 0.3959,-2.057 -0.48536,-3.0831 -0.6152,-0.7163 -2.874533,-0.83497 -4.060043,-0.21325 l -0.77055,0.40411 0.70555,-0.80557 c 2.66328,-3.04084 6.879173,-1.54164 6.879173,2.44629 0,3.06322 -2.04232,4.60662 -6.095763,4.60662 -1.76449,0 -2.40118,-0.15215 -3.00994,-0.7193 z"
       id="path6090-8"
       inkscape:connector-curvature="0"
       sodipodi:nodetypes="ccccccccsssccccccccsccccsccscsccscccccccccccccssc"
       inkscape:export-xdpi="500"
       inkscape:export-ydpi="500" />
    <path
       style="fill:#ff9e2b;fill-opacity:1;stroke-width:0.35277781"
       d="m 169.32349,296.08252 c -0.35757,-1.38928 -0.50575,-4.29455 -0.52183,-10.23056 -0.0199,-7.35833 -0.0966,-8.44073 -0.6823,-9.62873 -1.53203,-3.10759 -4.71269,-3.1144 -9.20777,-0.0197 l -1.76389,1.21437 1.73831,-1.62957 c 1.97007,-1.84685 4.47694,-3.23714 6.03005,-3.34421 2.54565,-0.17549 3.09647,-0.002 4.42337,1.39281 l 1.32275,1.39051 0.2399,-2.38878 c 0.42362,-4.21823 -0.6006,-6.41407 -4.29463,-9.20737 -2.89178,-2.18666 -3.4254,-3.0273 -2.89233,-4.55647 0.20943,-0.60076 0.54172,-1.09228 0.73843,-1.09228 0.67553,0 6.453,6.24575 7.68383,8.30662 1.79551,3.00634 1.83887,5.37122 0.23257,12.68366 -1.46448,6.66683 -1.95662,9.91815 -2.29616,15.16944 l -0.25091,3.88056 z m -2.25538,-12.50807 c -0.32016,-0.48862 -1.25448,-1.24764 -2.07626,-1.6867 -1.37061,-0.73229 -1.92435,-0.79492 -6.69762,-0.75758 l -5.20347,0.0407 v -1.31927 c 0,-3.97648 3.49151,-8.427 8.64306,-11.01705 2.76302,-1.38917 2.60593,-0.91876 -0.7778,2.32902 -4.0757,3.91196 -5.71561,6.04303 -5.11354,6.6451 0.21819,0.2182 1.87113,0.51347 3.67319,0.65617 1.80206,0.14269 3.59398,0.37853 3.98203,0.52406 1.50701,0.56519 3.11268,2.09233 3.77557,3.59091 0.78451,1.77352 0.66975,2.32991 -0.20516,0.99463 z m -4.87948,-28.32596 c -4.60438,-6.03879 -4.96872,-11.88694 -1.14682,-18.40802 1.11079,-1.89528 6.07118,-8.43647 5.76382,-7.60066 -0.0731,0.1988 -1.10858,2.26255 -2.30105,4.58611 -2.80614,5.46785 -3.65271,8.23715 -3.65271,11.94881 0,3.31034 0.60942,5.98337 2.05708,9.02279 0.55711,1.16967 0.91042,2.12667 0.78514,2.12667 -0.12529,0 -0.80274,-0.75406 -1.50546,-1.6757 z m 10.46489,0 c 2.35324,-4.71449 2.7291,-9.5961 1.10686,-14.37569 -0.84786,-2.49804 -3.90018,-8.6984 -5.46376,-11.09886 -1.34001,-2.05722 0.50974,-0.0488 3.00415,3.26193 5.8256,7.73198 6.96207,12.904 4.16246,18.94328 -0.91101,1.96522 -2.9408,4.91427 -3.39611,4.93413 -0.13751,0.006 0.12637,-0.74315 0.5864,-1.66479 z m -7.16247,-3.175 c -0.40185,-0.33955 -1.13382,-1.43416 -1.62658,-2.43248 -1.77342,-3.59287 -0.88687,-6.89963 2.11545,-7.89048 3.40006,-1.12213 6.00576,1.44911 5.27747,5.20769 l -0.25634,1.32291 -0.45971,-1.52794 c -0.62616,-2.08113 -1.42682,-2.88178 -2.88182,-2.88178 -1.82964,0 -2.92745,1.37612 -2.92577,3.66748 0.001,1.91875 0.93019,3.93174 2.00426,4.3439 0.32685,0.12542 1.17954,-0.0961 1.91,-0.49623 1.4623,-0.80098 1.56309,-0.18886 0.12415,0.75396 -1.10421,0.72351 -2.37626,0.69752 -3.28111,-0.067 z"
       id="path6090-9"
       inkscape:connector-curvature="0"
       sodipodi:nodetypes="scccccccccccscsscscsccscccccsccsccsscsscsccsccccccccscccccc"
       inkscape:export-xdpi="500"
       inkscape:export-ydpi="500" />
    <path
       style="fill:#ff9e2b;fill-opacity:1;stroke-width:0.35277781"
       d="m 38.406206,274.83534 c -4.20621,-0.63262 -6.98429,-1.79861 -9.08403,-3.81263 -1.95727,-1.87737 -1.74742,-3.35406 0.6526,-4.59224 0.40743,-0.2102 1.99493,-0.71147 3.52778,-1.11393 5.33714,-1.4013 5.60261,-1.71147 4.39808,-5.13857 -0.84967,-2.41747 -0.93975,-4.67665 -0.22519,-5.64759 0.49763,-0.67617 0.50701,-0.67591 0.74499,0.0208 0.13256,0.38806 0.7789,1.99266 1.43631,3.56578 1.30435,3.12119 1.45585,4.47633 0.70212,6.28026 -0.62939,1.50635 -0.73113,1.56261 -5.15128,2.8486 -3.20538,0.93258 -3.71971,1.18643 -3.81962,1.88527 -0.17928,1.25393 2.00999,3.08393 4.67359,3.90663 2.80976,0.86785 6.81992,1.4332 10.54865,1.48714 2.08014,0.0301 2.58966,0.11687 1.82655,0.31105 -1.35674,0.34523 -7.93387,0.34488 -10.23055,-7.9e-4 z m 5.11527,-2.30625 c -2.53968,-0.69839 -5.36218,-2.08251 -6.20582,-3.04326 -0.66464,-0.75691 -0.66423,-0.7631 0.0322,-0.47919 4.60455,1.87708 11.43314,2.79723 14.46308,1.9489 1.75245,-0.49065 3.85925,-2.18153 3.61958,-2.90501 -0.0972,-0.2933 -1.28855,-0.53131 -3.47086,-0.69339 -5.9124,-0.4391 -6.90439,-1.06912 -7.27061,-4.61755 -0.14591,-1.4137 -0.005,-2.51456 0.53471,-4.17246 0.4031,-1.23865 0.84302,-2.87598 0.97759,-3.6385 l 0.24469,-1.38641 0.68338,0.84394 c 0.74625,0.92158 0.73753,2.3118 -0.0378,6.02693 -0.77697,3.72298 0.006,4.31582 6.21947,4.70886 4.46236,0.28227 5.02704,0.53107 5.02704,2.21496 0,1.96337 -1.32203,3.6899 -3.59223,4.69136 -2.41148,1.06377 -8.23275,1.32351 -11.22444,0.50082 z m -7.19037,-22.25381 c -4.68007,-5.9629 -5.33204,-12.13929 -1.95101,-18.48275 0.91222,-1.71151 6.50611,-9.52051 6.8199,-9.52051 0.0592,0 -1.06373,2.34155 -2.49545,5.20344 -2.7958,5.58858 -4.00251,9.44408 -4.00251,12.78819 0,2.49994 1.10333,6.89246 2.45898,9.78958 0.56745,1.21268 0.96301,2.20486 0.87903,2.20486 -0.084,0 -0.85301,-0.89226 -1.70894,-1.98281 z m 11.41179,-0.13385 c 2.25132,-4.94932 2.69538,-9.42097 1.40202,-14.11821 -0.407,-1.47814 -2.04979,-5.19892 -3.73506,-8.45956 -1.65467,-3.20144 -2.85529,-5.66206 -2.66805,-5.46803 0.18724,0.19403 1.65251,2.09124 3.25616,4.21603 4.9209,6.52003 6.75828,11.50504 5.99125,16.2549 -0.40303,2.49579 -2.31105,6.48164 -4.04827,8.45681 l -1.24111,1.41111 z m -8.01858,-1.85209 c -1.18252,-1.25963 -2.18389,-3.82546 -2.19231,-5.61737 -0.006,-1.26211 0.20434,-1.90068 0.89687,-2.72371 1.69355,-2.01267 4.96458,-2.09034 6.48767,-0.15405 0.77918,0.99057 0.9944,3.73476 0.36882,4.70277 -0.26568,0.41111 -0.34318,0.30882 -0.34737,-0.45849 -0.007,-1.23093 -0.85119,-2.91224 -1.60871,-3.20293 -2.67355,-1.02593 -4.78764,1.46193 -3.9722,4.67451 0.62612,2.46675 2.66629,3.71833 3.81162,2.3383 0.24154,-0.29104 0.60615,-0.52917 0.81024,-0.52917 0.20409,0 -0.002,0.39688 -0.45747,0.88195 -1.07183,1.14092 -2.77182,1.1804 -3.79716,0.0882 z"
       id="path6090-6"
       inkscape:connector-curvature="0"
       sodipodi:nodetypes="cccscccsccccccccccccccccccsssscccccscsssccccscsccccccccccccsccc"
       inkscape:export-xdpi="500"
       inkscape:export-ydpi="500" />
    <g
       id="g845"
       transform="translate(0,10.054167)">
      <g
         inkscape:export-ydpi="500"
         inkscape:export-xdpi="500"
         transform="matrix(0.95752419,0,0,0.95752419,45.89306,311.41348)"
         data-name="Color copy"
         id="Color_copy">
        <g
           id="g6347">
          <path
             id="path6331"
             style="fill:#79bd9a"
             d="m 32,61 v 0 L 30.615,57.952 A 48.174,48.174 0 0 0 20.823,43.823 L 15,38 h 34 l -4.4,4.061 A 48.188,48.188 0 0 0 32,61 Z"
             inkscape:connector-curvature="0" />
          <ellipse
             id="ellipse6333"
             style="fill:#a8dba8"
             ry="9"
             rx="15"
             cy="38"
             cx="18" />
          <path
             id="path6335"
             style="fill:#a8dba8"
             d="M 46,29 A 16.644,16.644 0 0 0 40.923,29.8 21.418,21.418 0 0 1 32,39 C 31.789,38.885 31.587,38.757 31.381,38.635 A 16.979,16.979 0 0 0 61,38 17.216,17.216 0 0 0 46,29 Z"
             inkscape:connector-curvature="0" />
          <path
             id="path6337"
             style="fill:#a8dba8"
             d="M 48.461,6 A 17.742,17.742 0 0 0 38.723,8.707 19.762,19.762 0 0 1 40.464,30.67 16.789,16.789 0 0 0 48.755,23.49 17.216,17.216 0 0 0 48.461,6 Z"
             inkscape:connector-curvature="0" />
          <path
             id="path6339"
             style="fill:#a8dba8"
             d="M 21,21 A 19.947,19.947 0 0 1 25.589,8.305 17.788,17.788 0 0 0 16.539,6 17.216,17.216 0 0 0 16.245,23.49 16.727,16.727 0 0 0 23.21,30.064 19.72,19.72 0 0 1 21,21 Z"
             inkscape:connector-curvature="0" />
          <path
             id="path6341"
             style="fill:#cff09e"
             d="M 38,34 A 20.611,20.611 0 0 1 27,16 19.96,19.96 0 0 1 31.689,3.183 20.575,20.575 0 0 0 21,21 20.611,20.611 0 0 0 32,39 21.873,21.873 0 0 0 38.311,33.817 C 38.206,33.876 38.106,33.942 38,34 Z"
             inkscape:connector-curvature="0" />
          <path
             id="path6343"
             style="fill:#cff09e"
             d="M 42.209,15.462 A 19.7,19.7 0 0 1 43,21 20.478,20.478 0 0 1 33.326,38.208 20.112,20.112 0 0 0 48.906,36.349 20.61,20.61 0 0 0 58.994,17.823 20.98,20.98 0 0 0 42.209,15.462 Z"
             inkscape:connector-curvature="0" />
          <path
             id="path6345"
             style="fill:#cff09e"
             d="M 21,21 A 19.7,19.7 0 0 1 21.791,15.462 20.98,20.98 0 0 0 5.006,17.823 20.61,20.61 0 0 0 15.094,36.349 20.112,20.112 0 0 0 30.674,38.208 20.478,20.478 0 0 1 21,21 Z"
             inkscape:connector-curvature="0" />
        </g>
      </g>
      <g
         inkscape:export-ydpi="500"
         inkscape:export-xdpi="500"
         transform="matrix(0.95752419,0,0,0.95752419,45.89306,311.41348)"
         data-name="Stroke Closed copy"
         id="Stroke_Closed_copy">
        <path
           id="path6350"
           style="fill:#3b8686"
           d="m 61.873,37.513 a 18.84,18.84 0 0 0 -5.849,-6.4 22.342,22.342 0 0 0 3.97,-13.313 1,1 0 0 0 -0.48,-0.832 22.8,22.8 0 0 0 -7.56,-2.919 A 18.834,18.834 0 0 0 49.319,5.489 1,1 0 0 0 48.476,5 18.965,18.965 0 0 0 38.952,7.42 22.719,22.719 0 0 0 32.48,2.12 1,1 0 0 0 31.52,2.12 22.728,22.728 0 0 0 25.361,7.054 18.861,18.861 0 0 0 16.524,5 a 1,1 0 0 0 -0.843,0.487 18.85,18.85 0 0 0 -2.628,8.393 22.742,22.742 0 0 0 -8.567,3.086 1,1 0 0 0 -0.48,0.832 22.342,22.342 0 0 0 3.97,13.309 18.84,18.84 0 0 0 -5.849,6.4 1,1 0 0 0 0,0.974 A 18.292,18.292 0 0 0 18,48 a 17.561,17.561 0 0 0 4.694,-0.647 47.131,47.131 0 0 1 7.011,11.013 l 1.385,3.048 A 1,1 0 0 0 32,62 h 0.039 a 1,1 0 0 0 0.9,-0.657 47.05,47.05 0 0 1 8.1,-14.062 A 17.54,17.54 0 0 0 46,48 a 18.292,18.292 0 0 0 15.873,-9.513 1,1 0 0 0 0,-0.974 z M 48.406,35.482 a 18.918,18.918 0 0 1 -12.681,2.229 q 0.667,-0.529 1.29,-1.1 A 22.43,22.43 0 0 0 49.9,25.447 1.0004169,1.0004169 0 0 0 48.11,24.553 20.4,20.4 0 0 1 40.196,32.973 20.973,20.973 0 0 0 44,21 20.52,20.52 0 0 0 43.418,16.2 20.052,20.052 0 0 1 58,18.4 19.654,19.654 0 0 1 48.406,35.482 Z M 47.883,7 a 16.829,16.829 0 0 1 2.052,6.759 21.245,21.245 0 0 0 -7.083,0.5 A 21.419,21.419 0 0 0 40.182,9.015 16.68,16.68 0 0 1 47.883,7 Z M 32,4.148 A 19.658,19.658 0 0 1 42,21 19.567,19.567 0 0 1 33,37.226 V 27 a 1,1 0 0 0 -2,0 V 37.226 A 19.567,19.567 0 0 1 22,21 19.658,19.658 0 0 1 32,4.148 Z M 17.117,7 a 16.813,16.813 0 0 1 6.967,1.645 21.457,21.457 0 0 0 -2.936,5.61 A 21.154,21.154 0 0 0 15.067,13.688 16.854,16.854 0 0 1 17.117,7 Z m 3.465,9.2 A 20.52,20.52 0 0 0 20,21 20.959,20.959 0 0 0 23.767,32.908 20.273,20.273 0 0 1 16.716,25.916 l -0.859,-1.431 a 1,1 0 1 0 -1.714,1.03 L 15,26.945 a 22.312,22.312 0 0 0 11.948,9.633 c 0.425,0.394 0.869,0.77 1.327,1.134 A 18.92,18.92 0 0 1 15.593,35.482 19.654,19.654 0 0 1 6,18.4 20.059,20.059 0 0 1 20.582,16.2 Z M 4.155,38 a 16.808,16.808 0 0 1 5.057,-5.28 20.64,20.64 0 0 0 15.794,7.28 21.974,21.974 0 0 0 5.5,-0.718 c 0.108,0.066 0.219,0.128 0.327,0.193 A 16.152,16.152 0 0 1 18,46 16.268,16.268 0 0 1 4.155,38 Z M 31.932,58.432 31.525,57.538 A 49.061,49.061 0 0 0 24.725,46.659 18.463,18.463 0 0 0 32,41.234 18.478,18.478 0 0 0 39.038,46.557 48.947,48.947 0 0 0 31.932,58.432 Z M 46,46 A 16.152,16.152 0 0 1 33.168,39.471 c 0.108,-0.065 0.219,-0.127 0.327,-0.193 a 21.968,21.968 0 0 0 5.5,0.718 A 20.64,20.64 0 0 0 54.788,32.72 16.808,16.808 0 0 1 59.845,38 16.268,16.268 0 0 1 46,46 Z"
           inkscape:connector-curvature="0" />
      </g>
    </g>
    <flowRoot
       xml:space="preserve"
       id="flowRoot9999"
       style="font-style:normal;font-variant:normal;font-weight:normal;font-stretch:normal;font-size:85.33333588px;line-height:1.25;font-family:Papyrus;-inkscape-font-specification:Papyrus;letter-spacing:0px;word-spacing:0px;fill:#ffffff;fill-opacity:1;stroke:none"
       transform="matrix(0.26458333,0,0,0.26458333,-161.24464,76.645849)"><flowRegion
         id="flowRegion10001"
         style="font-style:normal;font-variant:normal;font-weight:normal;font-stretch:normal;font-size:85.33333588px;font-family:Papyrus;-inkscape-font-specification:Papyrus;fill:#ffffff"><rect
           id="rect10003"
           width="885.54218"
           height="186.55255"
           x="509.11688"
           y="835.94104"
           style="font-style:normal;font-variant:normal;font-weight:normal;font-stretch:normal;font-size:85.33333588px;font-family:Papyrus;-inkscape-font-specification:Papyrus;fill:#ffffff" /></flowRegion><flowPara
         id="flowPara10005"
         style="font-size:64px">yoga and mindfulness for kids</flowPara></flowRoot>  </g>
</svg>
