<?xml version="1.0" encoding="UTF-8" standalone="no"?>
<!-- Created with Inkscape (http://www.inkscape.org/) -->

<svg
   xmlns:dc="http://purl.org/dc/elements/1.1/"
   xmlns:cc="http://creativecommons.org/ns#"
   xmlns:rdf="http://www.w3.org/1999/02/22-rdf-syntax-ns#"
   xmlns:svg="http://www.w3.org/2000/svg"
   xmlns="http://www.w3.org/2000/svg"
   xmlns:sodipodi="http://sodipodi.sourceforge.net/DTD/sodipodi-0.dtd"
   xmlns:inkscape="http://www.inkscape.org/namespaces/inkscape"
   width="47.562099mm"
   height="81.547157mm"
   viewBox="0 0 47.5621 81.547157"
   version="1.1"
   id="svg7725"
   inkscape:version="0.92.3 (2405546, 2018-03-11)"
   sodipodi:docname="lotus_sm.svg">
  <defs
     id="defs7719" />
  <sodipodi:namedview
     id="base"
     pagecolor="#ffffff"
     bordercolor="#666666"
     borderopacity="1.0"
     inkscape:pageopacity="0.0"
     inkscape:pageshadow="2"
     inkscape:zoom="1.979899"
     inkscape:cx="92.965585"
     inkscape:cy="-66.457237"
     inkscape:document-units="mm"
     inkscape:current-layer="layer1"
     showgrid="false"
     fit-margin-top="0"
     fit-margin-left="0"
     fit-margin-right="0"
     fit-margin-bottom="0"
     inkscape:window-width="1920"
     inkscape:window-height="1017"
     inkscape:window-x="1912"
     inkscape:window-y="-8"
     inkscape:window-maximized="1" />
  <metadata
     id="metadata7722">
    <rdf:RDF>
      <cc:Work
         rdf:about="">
        <dc:format>image/svg+xml</dc:format>
        <dc:type
           rdf:resource="http://purl.org/dc/dcmitype/StillImage" />
        <dc:title></dc:title>
      </cc:Work>
    </rdf:RDF>
  </metadata>
  <g
     inkscape:label="Layer 1"
     inkscape:groupmode="layer"
     id="layer1"
     transform="translate(-99.34183,-84.905102)">
    <path
       id="path10863-7"
       d="m 144.81631,146.19469 v -1.27789 h -1.27797 c -2.29169,0 -4.52976,0.35403 -6.65365,1.03332 -0.18397,-2.24106 -0.71386,-4.43355 -1.58614,-6.53916 l -0.48887,-1.18044 -1.18077,0.4889 c -2.10532,0.87228 -4.03057,2.0477 -5.74514,3.50237 -1.02135,-1.98215 -2.35354,-3.81518 -3.97428,-5.43557 l -0.90352,-0.90358 -0.90363,0.90358 c -1.6207,1.62074 -2.95294,3.45342 -3.97428,5.43557 -1.71457,-1.45467 -3.63977,-2.63009 -5.74509,-3.50204 l -1.18077,-0.48936 -0.48888,1.1807 c -0.87228,2.10532 -1.40244,4.29784 -1.58613,6.53887 -2.12389,-0.67956 -4.36201,-1.03332 -6.65365,-1.03332 h -1.27797 v 1.27793 c 0,8.32931 4.69414,15.5817 11.57477,19.25447 h -5.18501 c -3.52336,0 -6.38976,2.86638 -6.38976,6.38971 v 1.278 h 5.24593 c -0.0599,0.41728 -0.0916,0.84398 -0.0916,1.27795 v 1.27794 h 8.98821 c 3.2505,0 6.1012,-1.74284 7.66775,-4.34269 1.56648,2.59985 4.41718,4.34269 7.66766,4.34269 h 8.98828 v -1.27794 c 0,-0.43397 -0.0294,-0.86067 -0.0916,-1.27795 h 5.24596 v -1.278 c 0,-3.52333 -2.86643,-6.38971 -6.38981,-6.38971 h -5.18499 c 6.88063,-3.67277 11.5748,-10.92516 11.5748,-19.25447 z m -11.41404,-4.56662 c 0.57876,1.71754 0.90818,3.49173 0.98373,5.29682 -1.50556,0.69855 -2.93362,1.57112 -4.25882,2.61017 -0.20213,-1.6717 -0.59539,-3.29874 -1.16575,-4.85726 1.32981,-1.22299 2.8171,-2.24472 4.44084,-3.04973 z m -10.3963,-2.06771 c 3.05704,3.50104 4.72638,7.94357 4.72638,12.64805 0,4.70482 -1.66934,9.14733 -4.72638,12.64839 -3.05715,-3.50106 -4.72644,-7.94357 -4.72644,-12.64839 0,-4.70448 1.66929,-9.14701 4.72644,-12.64805 z m -10.39636,2.06771 c 1.62374,0.80501 3.11098,1.82674 4.44084,3.05009 -0.57041,1.55816 -0.96341,3.1852 -1.1658,4.8569 -1.3252,-1.0387 -2.75321,-1.91162 -4.25882,-2.61017 0.0755,-1.80542 0.40502,-3.57928 0.98378,-5.29682 z m -8.81322,5.88919 c 4.47618,0.30304 8.65778,2.14122 11.9349,5.26024 0.11513,4.54472 1.60941,8.8518 4.2821,12.43807 -8.7746,-1.37512 -15.60327,-8.69675 -16.217,-17.69831 z m 3.41784,23.04372 h -3.24375 c 0.52745,-1.48762 1.9485,-2.55589 3.61485,-2.55589 h 1.45664 c -0.7498,0.73381 -1.37147,1.59811 -1.82774,2.55589 z m 8.12398,2.5559 h -6.30389 c 0.59372,-2.91303 3.17556,-5.11179 6.26134,-5.11179 h 6.30384 c -0.59367,2.91297 -3.17556,5.11179 -6.26129,5.11179 z m 15.33541,0 c -3.08568,0 -5.66757,-2.19882 -6.26129,-5.11179 h 6.30389 c 3.08573,0 5.66757,2.19876 6.26129,5.11179 z m 11.36778,-2.5559 h -3.2438 c -0.45653,-0.95778 -1.07794,-1.82208 -1.82738,-2.55589 h 1.45633 c 1.66629,0 3.08739,1.06827 3.61485,2.55589 z m -16.04292,-5.34541 c 2.6727,-3.58627 4.16695,-7.89335 4.28209,-12.43771 3.27708,-3.11938 7.45871,-4.95774 11.93492,-5.2606 -0.61373,9.00156 -7.44245,16.32319 -16.21701,17.69831 z m 0,0"
       inkscape:connector-curvature="0"
       style="fill:#ff9e2b;fill-opacity:1;stroke-width:0.08519667"
       inkscape:transform-center-x="-1.0447462"
       inkscape:transform-center-y="-0.5900216" />
  </g>
</svg>
