<?xml version="1.0" encoding="UTF-8" standalone="no"?>
<!-- Created with Inkscape (http://www.inkscape.org/) -->

<svg
   xmlns:dc="http://purl.org/dc/elements/1.1/"
   xmlns:cc="http://creativecommons.org/ns#"
   xmlns:rdf="http://www.w3.org/1999/02/22-rdf-syntax-ns#"
   xmlns:svg="http://www.w3.org/2000/svg"
   xmlns="http://www.w3.org/2000/svg"
   xmlns:sodipodi="http://sodipodi.sourceforge.net/DTD/sodipodi-0.dtd"
   xmlns:inkscape="http://www.inkscape.org/namespaces/inkscape"
   width="183.83366mm"
   height="134.08138mm"
   viewBox="0 0 183.83366 134.08137"
   version="1.1"
   id="svg9429"
   inkscape:version="0.92.3 (2405546, 2018-03-11)"
   sodipodi:docname="pose4.svg">
  <defs
     id="defs9423" />
  <sodipodi:namedview
     id="base"
     pagecolor="#ffffff"
     bordercolor="#666666"
     borderopacity="1.0"
     inkscape:pageopacity="0.0"
     inkscape:pageshadow="2"
     inkscape:zoom="0.35"
     inkscape:cx="-339.2457"
     inkscape:cy="16.26179"
     inkscape:document-units="mm"
     inkscape:current-layer="layer1"
     showgrid="false"
     fit-margin-top="0"
     fit-margin-left="0"
     fit-margin-right="0"
     fit-margin-bottom="0"
     inkscape:window-width="1920"
     inkscape:window-height="1017"
     inkscape:window-x="-8"
     inkscape:window-y="-8"
     inkscape:window-maximized="1" />
  <metadata
     id="metadata9426">
    <rdf:RDF>
      <cc:Work
         rdf:about="">
        <dc:format>image/svg+xml</dc:format>
        <dc:type
           rdf:resource="http://purl.org/dc/dcmitype/StillImage" />
        <dc:title></dc:title>
      </cc:Work>
    </rdf:RDF>
  </metadata>
  <g
     inkscape:label="Layer 1"
     inkscape:groupmode="layer"
     id="layer1"
     transform="translate(-66.702211,-19.054878)">
    <path
       style="fill:#ff9e2b;fill-opacity:1;stroke-width:0.35277781"
       d="m 88.226602,135.32062 c -0.35757,-1.38928 -0.50575,-4.29455 -0.52183,-10.23056 -0.0199,-7.35833 -0.0966,-8.44073 -0.6823,-9.62873 -1.53203,-3.10759 -4.71269,-3.1144 -9.20777,-0.0197 l -1.76389,1.21437 1.73831,-1.62957 c 1.97007,-1.84685 4.47694,-3.23714 6.03005,-3.34421 2.54565,-0.17549 3.09647,-0.002 4.42337,1.39281 l 1.32275,1.39051 0.2399,-2.38878 c 0.42362,-4.21822 -0.6006,-6.41406 -4.29463,-9.20736 -2.89178,-2.18666 -3.4254,-3.027303 -2.89233,-4.556473 0.20943,-0.60076 0.54172,-1.09228 0.73843,-1.09228 0.67553,0 6.453,6.245753 7.68383,8.306623 1.79551,3.00634 1.83887,5.37122 0.23257,12.68366 -1.46448,6.66683 -1.95662,9.91815 -2.29616,15.16944 l -0.25091,3.88056 z m -2.25538,-12.50807 c -0.32016,-0.48862 -1.25448,-1.24764 -2.07626,-1.6867 -1.37061,-0.73229 -1.92435,-0.79492 -6.69762,-0.75758 l -5.20347,0.0407 v -1.31927 c 0,-3.97648 3.49151,-8.427 8.64306,-11.01705 2.76302,-1.38917 2.60593,-0.91876 -0.7778,2.32902 -4.0757,3.91196 -5.71561,6.04303 -5.11354,6.6451 0.21819,0.2182 1.87113,0.51347 3.67319,0.65617 1.80206,0.14269 3.59398,0.37853 3.98203,0.52406 1.50701,0.56519 3.11268,2.09233 3.77557,3.59091 0.78451,1.77352 0.66975,2.32991 -0.20516,0.99463 z m -4.87948,-28.325963 c -4.60438,-6.03879 -4.96872,-11.886935 -1.14682,-18.408015 1.11079,-1.89528 6.07118,-8.43647 5.76382,-7.60066 -0.0731,0.1988 -1.10858,2.26255 -2.30105,4.58611 -2.80614,5.46785 -3.65271,8.23715 -3.65271,11.948808 0,3.310337 0.60942,5.983367 2.05708,9.022787 0.55711,1.16967 0.91042,2.12667 0.78514,2.12667 -0.12529,0 -0.80274,-0.75406 -1.50546,-1.6757 z m 10.46489,0 c 2.35324,-4.71449 2.7291,-9.596097 1.10686,-14.375685 -0.84786,-2.49804 -3.90018,-8.6984 -5.46376,-11.09886 -1.34001,-2.05722 0.50974,-0.0488 3.00415,3.26193 5.8256,7.73198 6.96207,12.903998 4.16246,18.943275 -0.91101,1.96522 -2.9408,4.91427 -3.39611,4.93413 -0.13751,0.006 0.12637,-0.74315 0.5864,-1.66479 z m -7.16247,-3.175 c -0.40185,-0.33955 -1.13382,-1.43416 -1.62658,-2.43248 -1.77342,-3.592867 -0.88687,-6.899625 2.11545,-7.890475 3.40006,-1.12213 6.00576,1.44911 5.27747,5.207688 l -0.25634,1.322907 -0.45971,-1.527937 c -0.62616,-2.081128 -1.42682,-2.881778 -2.88182,-2.881778 -1.82964,0 -2.92745,1.376118 -2.92577,3.667475 0.001,1.91875 0.93019,3.93174 2.00426,4.3439 0.32685,0.12542 1.17954,-0.0961 1.91,-0.49623 1.4623,-0.80098 1.56309,-0.18886 0.12415,0.75396 -1.10421,0.72351 -2.37626,0.69752 -3.28111,-0.067 z"
       id="path6090-9"
       inkscape:connector-curvature="0"
       sodipodi:nodetypes="scccccccccccscsscscsccscccccsccsccsscsscsccsccccccccscccccc"
       inkscape:export-xdpi="500"
       inkscape:export-ydpi="500" />
  </g>
</svg>
